<svg width="297" height="595" viewBox="0 0 297 595" fill="none" xmlns="http://www.w3.org/2000/svg">
<path d="M252.271 -322.558C251.815 -359.503 244.099 -420.432 240.298 -446.279L-20 -470.225L-10.5654 915.225L245.999 915.225L254.552 778.39L254.552 703.701C250.371 659.42 244.517 560.595 254.552 519.545C267.095 468.232 249.99 438.584 260.253 416.919C268.463 399.587 280.018 330.637 284.769 298.329L281.348 268.682C292.181 224.21 289.9 134.128 292.181 109.041C294.006 88.9723 285.72 38.3435 281.348 15.5377C288.76 -49.4587 280.208 -81.3867 276.787 -100.772C273.366 -120.157 279.068 -113.885 276.787 -144.103C274.507 -174.32 252.841 -276.376 252.271 -322.558Z" fill="#FFE3A6"/>
<path fill-rule="evenodd" clip-rule="evenodd" d="M253.527 538.758C253.529 538.826 253.506 538.925 253.542 538.958C253.696 539.099 253.817 539.055 253.843 538.846C253.85 538.797 253.776 538.704 253.724 538.692C253.667 538.678 253.594 538.732 253.527 538.758ZM263.074 415.796C263.147 415.674 263.277 415.551 263.279 415.428C263.283 415.208 263.14 415.167 262.975 415.323C262.921 415.373 262.843 415.471 262.861 415.512C262.906 415.617 262.999 415.703 263.074 415.796ZM264.045 404.535C265.16 404.17 265.23 403.559 265.243 402.708C264.426 403.064 263.929 403.408 264.045 404.535ZM262.42 429.997C262.477 430.052 262.528 430.119 262.594 430.159C262.642 430.188 262.711 430.182 262.772 430.193L262.401 430.02C262.356 429.297 263.681 428.848 262.724 427.707C261.792 428.467 261.729 429.16 262.42 429.997ZM261.407 475.202C261.063 475.539 260.718 475.874 260.373 476.21C260.097 476.047 259.805 475.839 259.555 476.215C259.495 476.303 259.585 476.491 259.607 476.633C259.868 476.48 260.13 476.328 260.392 476.174C260.477 476.495 260.561 477.025 260.937 476.874C261.733 476.555 261.721 475.871 261.378 475.173L261.469 475.111L261.407 475.202ZM259.323 493.678C257.799 492.11 257.739 488.518 259.314 487.037C260.433 485.983 261.306 484.974 260.352 483.383L260.387 483.418C259.958 482.342 261.417 481.178 260.219 480.116C259.517 480.355 260.118 481.777 258.904 481.567C258.035 480.679 259.668 479.684 258.812 478.796C258.811 478.615 258.81 478.435 258.809 478.255L258.838 478.284C258.797 478.335 258.714 478.393 258.721 478.435C258.741 478.551 258.799 478.66 258.842 478.772C258.236 479.727 258.088 481.028 256.922 481.584C256.322 481.052 256.571 480.506 256.638 480.044C256.963 477.782 257.661 475.508 256.177 473.375C257.903 469.959 256.323 466.019 258.033 462.506C259.032 460.454 259.527 458.01 259.643 455.712C259.785 452.944 259.517 449.957 260.057 447.414C260.763 444.082 259.663 440.422 261.79 437.383C262.291 436.665 261.795 435.884 261.903 435.14C261.931 435.012 262.313 434.993 262.016 434.767L261.927 435.159C260.306 435.346 261.125 437.614 259.416 437.912C258.929 436.807 258.831 435.208 259.527 434.675C260.434 433.982 261.476 433.489 262.208 432.265C261.469 431.948 260.577 432.955 259.996 432.034C259.467 431.193 260.035 430.544 260.303 429.872C261.736 426.275 261.055 422.419 261.84 418.701C261.18 420.093 260.311 421.274 259.682 422.704C259.165 421.981 259.029 421.246 259.165 420.644C259.933 417.237 259.447 413.535 261.532 410.436C261.892 409.901 261.93 409.288 261.735 408.709C261.203 407.127 261.639 405.872 262.426 404.389C263.192 402.947 262.97 401.028 263.22 399.34C263.657 396.391 264.943 393.552 264.603 390.487C264.587 390.327 264.647 390.144 264.714 389.991C265.239 388.798 266.537 387.918 266.017 386.278C265.913 385.953 266.678 385.364 267.675 384.991C266.674 386.754 267.76 388.408 267.025 389.962L267.05 389.939C266.144 390.183 266.381 390.893 266.352 391.539C266.297 392.77 265.964 393.949 265.514 395.094C265.468 395.218 265.062 395.229 265.395 395.473C265.423 395.338 265.452 395.202 265.481 395.068C265.661 395.08 265.841 395.092 266.022 395.103L266.004 395.085C266.482 396.312 265.627 397.359 265.548 398.507C265.483 399.452 263.658 400.727 266.26 401.246C266.981 401.39 266.146 403.199 266.325 404.286C266.461 405.107 266.566 406.488 264.794 406.071C264.09 405.905 263.779 406.611 263.668 407.208C263.56 407.781 263.817 408.072 264.487 408.18C266.503 408.507 264.684 410.549 265.871 411.49C266.292 411.823 264.957 412.156 264.475 412.555C264.218 412.293 264.103 411.821 263.591 411.941C263.543 411.952 263.475 412.087 263.493 412.135C263.678 412.632 264.158 412.404 264.496 412.53C264.441 413.59 264.553 414.321 265.334 415.392C266.201 416.582 265.946 418.957 265.043 420.928C264.39 420.418 263.637 419.654 262.929 420.807C262.473 421.548 262.532 422.082 263.463 422.323L263.441 422.305C263.79 422.784 264.138 423.264 264.502 423.765C264.354 424.672 262.879 424.392 262.887 425.434C263.519 426.309 264.165 425.122 264.835 425.568C264.9 425.74 265.096 425.993 265.055 426.197C264.69 428.005 265.091 429.929 264.108 431.663C263.786 432.231 263.394 433.152 264.481 433.609L264.465 433.592C264.299 436.687 263.472 439.774 264.358 442.882C264.402 443.037 264.419 443.26 264.34 443.381C262.676 445.933 264.454 448.869 263.744 451.198C262.636 454.828 264.841 458.619 262.647 462C262.366 462.432 262.579 462.997 262.919 463.435C263.261 463.876 263.413 464.477 263.145 464.887C261.904 466.781 262.199 469.082 261.407 471.084C260.879 471.418 260.533 472.028 259.846 472.123L259.874 472.095C260.059 472.488 260.363 472.933 260.778 472.788C261.595 472.502 261.313 471.693 261.383 471.065C261.803 471.144 262.441 471.227 262.403 471.66C262.081 475.289 264.26 479.064 261.793 482.574C261.677 482.739 261.664 483.131 261.779 483.279C263.298 485.224 262.372 486.549 260.739 487.768C259.901 488.393 259.924 489.246 260.478 490.042C260.985 490.772 261.328 491.438 261.018 492.396C259.556 496.898 259.705 501.597 259.367 506.239C259.284 507.385 258.998 508.575 258.319 509.587C258.26 509.71 257.878 509.734 258.201 509.973C258.237 509.842 258.274 509.71 258.31 509.578C259.123 510.269 259.786 510.96 258.31 511.651L258.328 511.633C258.107 514.307 257.211 516.931 257.643 519.813C257.079 520.933 255.475 518.904 254.846 520.702C256.643 521.05 257.447 522.113 256.761 523.966L256.78 523.946C255.381 525.108 257.43 525.602 257.28 526.522L257.296 526.507C257.262 526.566 257.194 526.628 257.199 526.684C257.213 526.812 257.262 526.937 257.296 527.063L257.28 527.048C257.553 528.556 255.814 528.188 255.371 529.016C257.13 531.224 257.158 532.222 255.427 534.748C255.114 535.206 254.779 535.409 255.372 535.936C256.035 536.525 255.382 537.193 255.226 537.819L255.243 537.804C255.203 537.862 255.125 537.925 255.131 537.978C255.148 538.108 255.204 538.233 255.244 538.36L255.228 538.345C255.904 539.878 255.106 541.371 255.077 542.886C255.008 546.604 254.846 550.325 254.176 553.999C253.887 555.583 254.004 557.209 253.921 558.795C253.841 560.325 253.419 561.459 252.815 562.798C252.409 563.695 252.935 565.206 252.777 566.439C252.492 568.67 253.252 571.102 251.524 573.069C251.391 573.22 251.339 573.552 251.404 573.749C252.624 577.465 251.05 580.968 250.597 584.553L250.623 584.528C248.237 581.394 247.729 578.068 248.644 574.148C249.44 570.734 249.301 567.084 249.367 563.562C249.414 561.047 249.741 558.559 250.424 556.317C251.518 552.72 251.312 549.077 251.763 545.475C252.157 542.317 252.713 539.171 252.772 535.953C252.797 534.614 253.348 533.313 252.508 532.044C252.463 531.975 252.397 531.852 252.425 531.812C253.739 529.894 251.862 527.416 253.607 525.515C254.697 524.329 253.789 522.804 253.828 521.442C253.933 517.779 254.614 514.206 255.244 510.619C255.244 510.619 255.222 510.639 255.222 510.638C255.404 510.455 255.585 510.271 255.767 510.088L255.746 510.105C255.501 507.585 256.257 505.265 257.181 502.983C257.514 502.161 257.526 501.359 257.365 500.482C256.948 498.208 258.278 496.19 258.455 493.989C258.466 493.854 259.039 493.762 259.35 493.651L259.323 493.678Z" fill="#7C6063"/>
<path fill-rule="evenodd" clip-rule="evenodd" d="M250.239 621.04C250.246 620.973 250.229 620.873 250.267 620.842C250.43 620.711 250.548 620.764 250.56 620.973C250.564 621.022 250.484 621.11 250.432 621.119C250.374 621.13 250.304 621.07 250.239 621.04ZM251.692 744.364C251.756 744.491 251.879 744.621 251.872 744.745C251.862 744.965 251.716 744.996 251.562 744.83C251.511 744.776 251.44 744.673 251.461 744.633C251.513 744.531 251.61 744.452 251.692 744.364ZM251.921 755.664C253.01 756.101 253.039 756.716 252.996 757.566C252.205 757.157 251.731 756.782 251.921 755.664ZM251.971 730.151C252.032 730.099 252.087 730.036 252.155 730.001C252.205 729.975 252.274 729.985 252.335 729.978L251.954 730.126C251.862 730.845 253.154 731.38 252.124 732.455C251.245 731.636 251.227 730.941 251.971 730.151ZM253.929 684.976C253.607 684.618 253.285 684.261 252.963 683.903C252.677 684.047 252.372 684.236 252.147 683.844C252.094 683.752 252.195 683.571 252.226 683.431C252.478 683.6 252.729 683.769 252.98 683.94C253.086 683.625 253.205 683.102 253.57 683.277C254.343 683.648 254.286 684.33 253.898 685.003L253.985 685.072L253.929 684.976ZM253.063 666.403C251.439 667.869 251.143 671.449 252.617 673.029C253.665 674.155 254.47 675.219 253.414 676.744L253.451 676.711C252.952 677.757 254.331 679.014 253.066 679.995C252.381 679.711 253.074 678.331 251.849 678.461C250.924 679.29 252.488 680.39 251.575 681.22C251.562 681.4 251.55 681.58 251.537 681.76L251.568 681.733C251.53 681.679 251.451 681.616 251.461 681.574C251.489 681.46 251.553 681.354 251.604 681.246C251.062 680.253 251 678.945 249.872 678.314C249.239 678.806 249.452 679.366 249.488 679.832C249.664 682.111 250.211 684.425 248.59 686.456C250.088 689.978 248.253 693.806 249.728 697.424C250.591 699.537 250.924 702.008 250.889 704.309C250.848 707.08 250.385 710.043 250.757 712.616C251.243 715.987 249.905 719.567 251.827 722.739C252.281 723.488 251.735 724.236 251.793 724.985C251.813 725.115 252.193 725.159 251.881 725.365L251.818 724.968C250.214 724.674 251.179 722.465 249.494 722.055C248.936 723.126 248.732 724.716 249.391 725.292C250.252 726.044 251.259 726.604 251.908 727.873C251.151 728.141 250.326 727.078 249.687 727.959C249.104 728.763 249.628 729.448 249.85 730.137C251.044 733.82 250.112 737.623 250.651 741.385C250.084 739.951 249.294 738.716 248.76 737.248C248.197 737.936 248.013 738.66 248.109 739.269C248.652 742.72 247.924 746.382 249.8 749.611C250.125 750.169 250.123 750.783 249.89 751.348C249.255 752.892 249.608 754.172 250.296 755.704C250.965 757.193 250.618 759.093 250.757 760.794C250.999 763.766 252.096 766.682 251.556 769.719C251.528 769.877 251.577 770.064 251.633 770.221C252.079 771.445 253.316 772.409 252.69 774.011C252.565 774.329 253.29 774.967 254.259 775.405C253.377 773.58 254.569 772 253.937 770.401L253.961 770.426C253.073 770.123 253.357 769.431 253.37 768.784C253.395 767.552 253.141 766.354 252.767 765.182C252.729 765.054 252.325 765.017 252.673 764.795C252.692 764.932 252.712 765.069 252.732 765.206C252.913 765.205 253.093 765.205 253.274 765.205L253.255 765.222C253.813 764.03 253.029 762.929 253.025 761.778C253.022 760.83 251.285 759.439 253.915 759.091C254.645 758.995 253.93 757.135 254.18 756.062C254.369 755.253 254.565 753.881 252.769 754.181C252.056 754.3 251.791 753.575 251.721 752.973C251.65 752.393 251.926 752.12 252.601 752.056C254.635 751.862 252.954 749.705 254.2 748.845C254.642 748.54 253.331 748.12 252.877 747.69C252.603 747.934 252.458 748.398 251.954 748.245C251.907 748.23 251.848 748.091 251.869 748.045C252.086 747.561 252.551 747.82 252.896 747.716C252.911 746.655 253.07 745.933 253.92 744.915C254.863 743.785 254.765 741.399 253.994 739.372C253.308 739.838 252.507 740.552 251.876 739.354C251.47 738.584 251.563 738.055 252.508 737.877L252.485 737.893C252.865 737.438 253.244 736.982 253.639 736.506C253.552 735.591 252.062 735.773 252.137 734.734C252.825 733.903 253.392 735.129 254.091 734.729C254.167 734.561 254.379 734.322 254.351 734.116C254.106 732.287 254.632 730.394 253.765 728.599C253.481 728.011 253.151 727.067 254.265 726.681L254.248 726.697C254.286 723.598 253.664 720.464 254.751 717.421C254.805 717.269 254.837 717.047 254.766 716.922C253.273 714.266 255.24 711.452 254.684 709.082C253.818 705.388 256.266 701.749 254.299 698.231C254.047 697.782 254.297 697.232 254.665 696.817C255.035 696.4 255.226 695.81 254.986 695.384C253.872 693.412 254.318 691.135 253.659 689.086C253.153 688.718 252.849 688.087 252.169 687.947L252.195 687.977C252.405 687.596 252.738 687.172 253.143 687.344C253.939 687.683 253.605 688.472 253.633 689.103C254.057 689.052 254.7 689.011 254.69 688.576C254.608 684.934 257.029 681.311 254.798 677.646C254.694 677.473 254.706 677.082 254.831 676.942C256.474 675.101 255.637 673.717 254.087 672.394C253.293 671.715 253.371 670.866 253.976 670.107C254.53 669.412 254.916 668.77 254.67 667.794C253.506 663.206 253.964 658.527 253.932 653.872C253.924 652.724 253.717 651.518 253.106 650.463C253.054 650.337 252.675 650.287 253.013 650.07C253.041 650.204 253.069 650.338 253.096 650.472C253.952 649.835 254.659 649.189 253.232 648.403L253.248 648.422C253.204 645.739 252.482 643.062 253.102 640.215C252.613 639.061 250.879 640.979 250.37 639.144C252.186 638.915 253.058 637.906 252.494 636.013L252.513 636.034C251.193 634.782 253.27 634.425 253.18 633.497L253.195 633.513C253.165 633.451 253.102 633.385 253.11 633.33C253.132 633.203 253.189 633.081 253.233 632.957L253.216 632.971C253.586 631.485 251.827 631.738 251.439 630.883C253.339 628.795 253.433 627.801 251.872 625.167C251.589 624.689 251.269 624.464 251.895 623.977C252.595 623.433 251.987 622.724 251.872 622.089L251.888 622.105C251.853 622.044 251.779 621.976 251.789 621.924C251.814 621.795 251.878 621.674 251.927 621.55L251.91 621.564C252.684 620.079 251.986 618.537 252.057 617.023C252.232 613.308 252.315 609.585 251.888 605.875C251.703 604.275 251.927 602.66 251.948 601.072C251.969 599.541 251.622 598.382 251.107 597.006C250.761 596.084 251.385 594.611 251.308 593.369C251.17 591.124 252.088 588.748 250.493 586.672C250.37 586.512 250.34 586.178 250.418 585.985C251.879 582.357 250.539 578.759 250.322 575.152L250.347 575.179C247.76 578.149 247.035 581.434 247.69 585.406C248.261 588.865 247.882 592.498 247.717 596.016C247.599 598.529 247.761 601.034 248.295 603.316C249.151 606.976 248.706 610.598 248.92 614.222C249.106 617.399 249.454 620.575 249.302 623.789C249.238 625.127 249.703 626.462 248.781 627.673C248.732 627.738 248.658 627.857 248.683 627.899C249.868 629.899 247.833 632.249 249.449 634.26C250.459 635.515 249.453 636.977 249.403 638.339C249.266 642.001 249.712 645.611 250.105 649.232C250.105 649.232 250.084 649.21 250.084 649.211C250.253 649.406 250.422 649.601 250.592 649.795L250.572 649.777C250.162 652.276 250.764 654.641 251.536 656.978C251.814 657.82 251.774 658.621 251.556 659.486C250.99 661.727 252.185 663.828 252.217 666.036C252.219 666.172 252.784 666.301 253.088 666.432L253.063 666.403Z" fill="#7C6063"/>
<path fill-rule="evenodd" clip-rule="evenodd" d="M280.397 300.99L280.537 301.09L280.563 300.935L280.397 300.99ZM279.048 315.51C279.159 315.577 279.27 315.644 279.38 315.711C279.438 315.582 279.558 315.439 279.534 315.328C279.513 315.236 279.321 315.183 279.206 315.112C279.153 315.244 279.101 315.377 279.048 315.51ZM284.485 245.38C284.536 245.516 284.55 245.73 284.646 245.775C284.914 245.902 285.09 245.714 285.139 245.47C285.164 245.346 285.094 245.108 285.005 245.072C284.742 244.96 284.583 245.145 284.485 245.38ZM283.292 293.322C283.278 293.675 282.774 294.122 283.473 294.507C283.699 294.103 283.808 293.743 283.292 293.322ZM283.811 291.583C284.33 291.502 284.786 291.461 284.875 290.814C284.886 290.741 284.649 290.541 284.566 290.561C284.139 290.665 283.783 290.872 283.811 291.583ZM283.383 298.581C284.065 297.773 284.134 297.002 283.893 295.721C283.448 296.873 282.82 297.539 283.383 298.581ZM285.925 240.656C284.906 240.751 284.211 240.906 283.839 241.896C285.036 242.277 285.421 241.606 285.925 240.656ZM284.056 283.807C284.116 283.868 284.168 283.941 284.239 283.983C284.291 284.013 284.367 284 284.432 284.007C284.301 283.949 284.169 283.889 284.037 283.831C283.958 283.073 283.79 282.401 282.776 282.474C282.465 283.716 283.426 283.596 284.056 283.807ZM283.055 303.305C283.037 303.61 282.835 303.984 283.289 304.127C283.386 304.158 283.647 304.006 283.659 303.916C283.719 303.455 283.331 303.425 283.021 303.333C283.114 302.893 283.701 302.516 283.202 301.981C282.771 302.292 281.934 302.227 282.144 303.065C282.181 303.212 282.738 303.228 283.055 303.305ZM279.449 317.168L279.501 317.256L279.419 317.197L279.361 317.116L279.449 317.168ZM281.477 267.391C281.043 265.522 279.665 263.818 280.481 261.729L280.459 261.752C280.997 262.011 281.459 262.006 281.658 261.336C281.817 260.802 281.5 260.52 281.032 260.467C280.204 260.374 279.525 260.155 279.445 259.171L279.416 259.194C279.751 259.234 280.225 259.438 280.4 259.289C282.534 257.474 283.761 254.446 282.988 252.446C282.123 250.205 283.36 249.626 284.119 248.481C283.638 247.402 282.856 248.875 282.258 247.932C281.948 247.063 283.329 246.368 283.015 245.302C283.19 245.127 283.364 244.952 283.538 244.777C284.09 244.483 284.615 244.153 284.289 243.404C284.184 243.165 283.888 243.029 283.646 243.208C282.996 243.688 283.316 244.253 283.562 244.8C283.386 244.975 283.211 245.149 283.036 245.323C282.738 245.025 282.14 244.665 282.187 244.438C282.561 242.63 283.257 240.883 282.311 239.002C282.134 238.649 282.86 238.207 283.414 238.188C284.624 238.15 283.479 239.441 284.521 239.763C284.944 237.906 286.546 236.553 286.025 234.221C285.63 232.451 286.459 230.597 286.754 228.791C287.185 226.14 288.325 223.482 286.813 220.541C286.093 219.139 285.55 216.763 287.123 215.009C287.297 214.837 287.471 214.664 287.644 214.491C287.99 214.207 288.157 213.867 287.882 213.456C287.834 213.385 287.548 213.359 287.5 213.419C287.168 213.824 287.55 214.149 287.661 214.507C287.489 214.681 287.316 214.856 287.144 215.03C286.043 213.764 285.204 212.467 286.634 210.889L286.607 210.915C287.495 209.849 288.638 210.344 289.711 210.41L289.689 210.387C290.203 211.685 290.646 212.974 289.187 213.997L289.201 213.985C290.053 216.554 289.524 219.062 289.21 221.668C288.918 224.089 288.132 226.434 288.145 228.888L288.174 228.859C287.595 229.383 286.849 229.908 288.172 230.435L288.148 230.411C287.613 234.28 287.948 238.155 286.959 242.095C285.804 246.698 284.737 251.512 285.167 256.41C285.241 257.239 285.398 258.078 284.458 258.687C283.734 259.157 283.835 260.006 284.031 260.763C284.766 263.605 284.772 263.604 282.671 265.822C284.582 266.444 284.655 267.778 284.325 269.478C284.107 270.601 284.433 271.832 284.527 273.014C284.642 274.468 284.567 275.852 284.08 277.291C283.602 278.697 283.461 280.276 284.736 281.544C285.025 281.831 285.272 282.252 285.346 282.646C285.71 284.582 286.224 286.429 286.889 288.307C287.551 290.176 287.164 292.625 286.839 294.837C286.23 298.994 285.574 303.156 284.479 307.19C283.852 309.502 284.247 312.321 281.774 314.125C283.418 314.403 283.687 315.453 283.338 316.735C283.135 317.485 282.853 318.22 281.719 317.691C281.065 317.388 280.997 317.534 280.988 318.729C280.794 318.916 280.407 318.96 280.512 319.376C280.949 319.34 280.836 318.943 280.965 318.708C282.25 319.44 282.768 320.251 281.944 321.813C281.385 322.87 281.783 324.334 280.962 325.416L280.998 325.384C280.503 325.539 280.068 325.566 279.963 324.896L279.939 324.918C279.94 324.728 279.94 324.537 279.941 324.346L279.961 324.366C280.445 320.2 277.55 317.021 276.387 313.266C277.442 313.163 277.206 314.061 277.88 314.271C278.238 313.581 278.532 312.734 279.784 313.287C280.619 313.655 281.767 313.125 280.995 311.973C279.957 310.42 280.781 308.847 280.516 307.312C280.39 306.58 281.325 305.812 279.819 305.199C278.926 304.836 280.168 303.647 280.939 302.489C279.145 303.183 278.798 302.234 278.684 301.196C278.622 300.634 277.854 299.5 279.45 299.733C279.395 299.789 279.329 299.837 279.29 299.902C279.261 299.95 279.267 300.019 279.259 300.078C279.313 299.955 279.366 299.831 279.42 299.708C280.897 299.645 281.865 298.121 281.306 296.291C280.668 294.203 281.362 292.115 281.016 289.983C280.755 288.38 282.578 289.357 283.531 289.48L283.667 289.587L283.563 289.448C283.775 288.895 284.092 288.362 283.837 287.463C282.228 288.44 280.827 288.369 280.091 286.385C280.005 286.151 279.768 285.74 279.774 285.737C282.307 284.391 280.135 281.244 282.101 279.673C282.698 279.196 282.424 278.882 282.064 278.154C281.483 276.98 281.648 275.338 281.798 273.927C281.947 272.53 281.658 271.318 281.153 270.065C280.783 269.146 280.29 268.113 281.511 267.364C281.597 267.477 281.357 267.813 281.751 267.718C281.659 267.608 281.568 267.499 281.477 267.391Z" fill="#7C6063"/>
<path fill-rule="evenodd" clip-rule="evenodd" d="M273.781 345.956C275.305 343.029 275.627 339.739 275.712 336.615C275.783 334.033 276.319 331.271 275.203 328.702C274.98 328.188 275.168 327.725 275.581 327.33C276.366 326.581 275.898 325.971 275.325 325.387L275.343 325.406C275.347 323.507 274.07 321.728 274.814 319.759L274.785 319.775C277.49 320.176 278.674 321.244 278.144 323.785C277.801 325.43 278.491 326.061 279.383 326.906C279.322 327.119 279.255 327.33 279.208 327.547C279.204 327.565 279.335 327.613 279.404 327.647C279.439 327.429 279.475 327.21 279.512 326.992C280.348 326.772 280.801 326.196 280.999 325.384L280.961 325.415C282.468 326.549 281.393 327.494 280.62 328.268C280.113 328.777 279.276 328.955 278.412 329.366C279.387 332.045 279.115 334.948 278.706 337.527C278.324 339.939 277.493 342.434 277.212 344.903C276.894 347.69 275.234 350.117 275.538 353.09C275.699 354.668 275.693 356.821 273.238 357.324C272.997 357.373 272.61 357.94 272.678 358.086C273.541 359.945 271.943 362.273 273.795 363.922L273.778 363.904C273.997 366.605 274.33 369.308 272.95 371.858C272.06 373.501 271.239 375.183 271.321 377.141C271.331 377.383 271.267 377.726 271.103 377.863C269.048 379.582 269.857 381.98 269.551 384.122C269.344 385.564 268.944 386.968 267.831 388.038C267.378 388.473 266.893 388.878 266.277 388.377C265.773 387.969 265.478 387.339 265.881 386.784C266.95 385.316 266.779 383.32 268.019 381.945C268.38 381.547 268.538 381.089 268.554 380.548C268.627 378.012 268.788 377.49 270.155 375.112C268.032 374.704 268.529 373.44 269.179 372.126L269.152 372.148C270.076 371.665 270.741 370.637 272.082 371.274C271.768 369.889 270.853 369.944 269.988 369.611C271.699 366.232 270.93 362.661 271.323 359.214C271.409 358.458 271.171 357.518 271.721 357.011C274.231 354.7 273.492 351.824 273.282 349.023L273.391 348.893L273.273 349.015C272.973 347.324 274.632 347.251 275.487 346.502C274.959 345.985 274.207 346.503 273.811 345.924L273.781 345.956Z" fill="#7C6063"/>
<path fill-rule="evenodd" clip-rule="evenodd" d="M291.29 165.829C291.407 166.017 291.454 166.184 291.562 166.246C291.781 166.374 292.032 166.367 292.095 166.063C292.119 165.944 291.989 165.678 291.932 165.678C291.726 165.68 291.52 165.768 291.29 165.829ZM291.748 163.16L292.795 162.66L292.77 162.635C293.539 164.325 293.02 166.161 293.36 167.908C293.618 169.231 291.879 169.133 291.564 170.107C291.991 170.622 292.539 169.988 292.996 170.325C293.371 170.602 293.649 170.884 293.564 171.36C293.492 171.755 293.231 171.824 292.816 171.822C291.436 171.815 291.575 172.694 292.069 173.47C293.37 175.512 293.341 176.881 291.781 179.093C291.592 179.249 291.184 178.924 291.137 179.387C291.345 179.282 291.553 179.176 291.761 179.071C292.645 179.579 292.818 180.265 292.282 181.132L292.263 181.113C292.81 181.87 292.386 182.311 291.752 182.684L291.774 182.663C292.969 186.302 291.924 189.995 291.974 193.661C291.983 194.275 291.161 194.901 290.723 195.521L290.76 195.491C290.572 195.493 290.384 195.494 290.194 195.495L290.218 195.504C290.332 193.449 290.568 191.392 290.21 189.336C290.578 189.276 291.035 189.45 291.246 188.936C290.756 188.742 290.461 188.978 290.223 189.351C290.056 189.34 289.888 189.328 289.722 189.316C290.533 186.351 288.956 183.439 289.51 180.441C289.625 179.821 288.97 180.507 288.671 180.601L288.69 180.62C288.503 180.143 288.198 179.524 288.514 179.162C290.055 177.407 289.063 175.242 289.458 173.302C289.777 171.726 289.127 169.903 288.955 168.194C288.799 166.648 289.239 165.411 289.512 164.055C289.787 162.678 290.928 163.222 291.775 163.137C291.879 163.223 291.688 163.553 292.028 163.448C291.935 163.352 291.841 163.256 291.748 163.16Z" fill="#7C6063"/>
<path fill-rule="evenodd" clip-rule="evenodd" d="M272.77 337.219C272.112 337.56 271.783 338.003 272.192 338.811C273.041 338.388 272.689 337.734 272.758 337.205L272.852 337.117L272.77 337.219ZM268.151 331.06C266.901 329.711 267.122 328.04 267.138 326.416L267.117 326.439C268.789 326.739 269.314 328.339 269.456 329.452C269.759 331.812 270.464 333.945 271.837 336C272.083 334.167 272.407 332.341 271.545 330.486C270.571 328.391 269.885 326.222 270.208 323.858L270.17 323.881C270.735 323.801 271.129 323.124 271.975 323.471C271.658 325.981 272.636 328.089 273.824 330.373C274.951 332.545 274.193 335.363 273.986 337.894C273.917 338.731 273.553 339.549 273.94 340.398C274.171 340.907 274.19 341.395 273.625 341.721C273.106 342.022 272.603 341.861 272.204 341.525C271.309 340.773 269.787 340.381 270.567 338.615C270.746 338.212 270.699 337.475 270.436 337.148C268.992 335.349 268.777 333.12 268.134 331.042L268.227 330.972L268.151 331.06Z" fill="#7C6063"/>
<path fill-rule="evenodd" clip-rule="evenodd" d="M290.722 195.521C291.136 195.549 291.845 195.498 291.831 195.88C291.776 197.383 292.402 199.06 290.775 200.56C290.45 199.248 290.734 197.899 289.715 197.05L289.697 197.065L289.697 196.51L289.714 196.525C289.881 196.185 290.05 195.845 290.218 195.504L290.194 195.495C290.384 195.67 290.573 195.65 290.76 195.491L290.722 195.521Z" fill="#7C6063"/>
<path fill-rule="evenodd" clip-rule="evenodd" d="M289.422 207.342C288.915 206.41 288.674 205.418 288.901 204.223C290.175 204.145 290.698 204.866 290.839 205.842C290.963 206.701 290.556 207.318 289.422 207.342Z" fill="#7C6063"/>
<path fill-rule="evenodd" clip-rule="evenodd" d="M280.96 228.899C281.646 228.689 282.332 228.479 283.195 228.215C283.111 229.313 282.824 230.201 282.342 231.201C281.254 230.676 281.593 229.488 280.98 228.883L280.96 228.899Z" fill="#7C6063"/>
<path fill-rule="evenodd" clip-rule="evenodd" d="M285.628 202.671C283.549 201.499 285.536 199.496 284.545 198.102C285.913 199.433 285.197 201.171 285.59 202.693L285.628 202.671Z" fill="#7C6063"/>
<path fill-rule="evenodd" clip-rule="evenodd" d="M282.525 235.55C282.362 234.975 281.479 234.542 282.059 233.847C282.353 233.495 282.834 233.723 283.098 234.081C283.671 234.862 283.213 235.256 282.504 235.531L282.525 235.55Z" fill="#7C6063"/>
<path fill-rule="evenodd" clip-rule="evenodd" d="M284.792 223.132C284.107 222.195 283.878 221.54 284.662 220.703C285.177 221.451 285.043 222.147 284.792 223.132Z" fill="#7C6063"/>
<path fill-rule="evenodd" clip-rule="evenodd" d="M285.917 209.842C285.503 209.903 285.288 209.693 285.317 209.306C285.348 208.885 285.507 208.474 285.984 208.402C286.248 208.361 286.427 208.597 286.455 208.871C286.503 209.313 286.405 209.69 285.917 209.842Z" fill="#7C6063"/>
<path fill-rule="evenodd" clip-rule="evenodd" d="M289.768 202.112C289.879 201.761 290.129 201.524 290.475 201.472C290.894 201.408 291.094 201.667 290.999 202.062C290.909 202.43 290.603 202.59 290.233 202.576C289.957 202.564 289.747 202.444 289.768 202.112Z" fill="#7C6063"/>
<path fill-rule="evenodd" clip-rule="evenodd" d="M287.124 199.633C287.428 200.103 287.643 200.578 287.282 201.217C286.729 200.636 287.295 200.104 287.145 199.614L287.124 199.633Z" fill="#7C6063"/>
<path fill-rule="evenodd" clip-rule="evenodd" d="M285.626 206.263C285.27 206.12 284.824 206.068 284.838 205.535C284.839 205.479 284.946 205.374 284.989 205.381C285.503 205.463 285.492 205.914 285.599 206.282L285.626 206.263Z" fill="#7C6063"/>
<path fill-rule="evenodd" clip-rule="evenodd" d="M289.711 210.41L289.69 210.388L289.711 210.41Z" fill="#7C6063"/>
<path fill-rule="evenodd" clip-rule="evenodd" d="M289.197 200.652L289.177 200.633L289.197 200.652Z" fill="#7C6063"/>
<path fill-rule="evenodd" clip-rule="evenodd" d="M292.715 81.5229C292.59 81.4683 292.414 81.4448 292.355 81.3487C292.304 81.2668 292.385 81.102 292.407 80.974C292.534 81.0267 292.712 81.0483 292.773 81.1444C292.824 81.2263 292.741 81.393 292.715 81.5229ZM295.043 147.685C295.156 147.789 295.346 147.88 295.366 148.001C295.417 148.292 295.262 148.493 294.948 148.374C294.839 148.332 294.737 148.108 294.746 147.975C294.753 147.873 294.937 147.781 295.043 147.685ZM293.042 92.7542C292.854 92.5866 292.674 92.4095 292.818 92.1317C292.839 92.0912 292.956 92.1006 293.029 92.0874C293.025 92.3182 293.021 92.5489 293.018 92.7806L293.042 92.7542ZM293.559 99.9397L293.465 99.886L293.532 99.9651L293.608 100.03L293.559 99.9397ZM284.32 46.557C284.235 48.9754 285.573 51.0604 285.953 53.4072C286.245 55.2135 285.852 57.1902 286.882 58.875L286.854 58.8938C287.043 58.7186 287.231 58.7375 287.417 58.8976L287.374 58.8571C287.507 58.9767 287.536 59.1161 287.457 59.2752C287.401 59.3468 287.338 59.4108 287.264 59.4664L287.048 59.4815L286.85 59.3854L286.879 59.4033C285.97 59.9081 285.538 60.5975 285.874 61.494C286.712 62.3434 287.112 59.9599 287.887 61.4573L287.908 61.4365C287.315 61.8198 287.418 62.4319 287.395 63.0008L287.378 62.9782L288.435 64.0216L288.403 63.9915C288.778 64.3503 288.836 64.7091 288.406 65.0679L288.424 65.0396C288.396 65.7082 288.692 66.4023 288.349 67.0427C286.325 70.8238 285.57 75.0391 284.149 79.0179C283.416 81.0728 282.662 83.2906 281.217 85.0818L281.242 85.0555C281.643 86.324 281.123 87.4277 280.516 88.4532C279.942 89.4223 280.234 90.3104 281.048 90.5779C281.796 90.8227 282.878 91.6081 283.63 90.1776C284.582 88.3685 285.602 86.6131 285.864 84.5412C285.68 84.5394 285.496 84.5365 285.311 84.5346C285.29 84.9104 285.497 85.3841 284.901 85.5094C284.846 85.5207 284.729 85.4425 284.709 85.3831C284.515 84.8077 284.929 84.6872 285.336 84.5657C285.505 84.5657 285.674 84.5667 285.842 84.5676C286.087 83.7606 285.329 83.0486 286.387 81.9901C287.522 80.8534 287.444 78.5659 287.933 76.7916C288.315 75.4026 288.879 74.0945 289.185 72.7167C290.144 72.5689 290.035 73.4852 290.476 73.7884L290.457 73.7705C289.328 76.0364 288.839 78.484 288.422 80.9523L288.405 80.9362C288.443 80.9956 288.518 81.0596 288.512 81.1143C288.498 81.2433 288.445 81.3676 288.408 81.4947L288.425 81.4797C289.471 82.3508 288.966 83.2049 288.396 84.0572C288.801 84.2013 289.47 83.8444 289.554 84.7758C288.923 84.8605 288.673 84.4396 288.417 84.0327C287.615 84.3049 287.648 84.7983 288.049 85.3973C288.564 86.1676 289.12 86.9154 289.575 87.7196C290.367 89.1238 290.906 90.4554 290.014 92.1788C289.296 93.5688 289.34 95.2762 289.459 96.8857L289.436 96.8621C290.53 97.3866 289.713 97.6513 289.295 98.0053C288.634 98.5647 287.477 98.7493 287.575 99.9199C287.802 102.589 285.954 104.443 284.985 106.633C284.461 107.816 283.925 108.923 284.32 110.242L284.417 110.116L284.294 110.217C285.299 110.27 286.069 109.989 286.206 109.272C286.652 106.93 287.29 104.84 289.548 103.436C290.361 102.932 289.883 101.173 291.22 100.113C290.771 103.208 290.931 105.96 291.004 108.713L290.978 108.675C292.103 109.06 292.84 109.603 291.891 110.857C291.45 111.442 291.539 112.135 291.514 112.803L291.486 112.777C292.01 112.358 292.91 112.12 292.576 113.055C291.53 115.985 292.378 118.689 293.139 121.421C293.462 122.581 292.737 123.133 292.151 123.845C291.745 124.338 291.76 124.39 292.549 125.136C292.947 125.511 292.897 125.893 292.69 126.27C292.15 127.245 292.227 128.231 292.54 129.238L292.509 129.206C293.131 129.29 293.713 129.387 293.445 130.276C292.87 132.187 292.987 134.071 293.211 136.064C293.379 137.575 292.752 139.129 293.391 140.766C293.738 141.652 292.946 142.119 291.995 141.538L292.018 141.561C293.345 144.3 291.436 147.03 291.999 149.766C292.329 150.046 292.541 150.348 292.145 150.734C292.1 150.778 291.962 150.801 291.927 150.769C291.51 150.382 291.9 150.074 292.04 149.741C291.395 149.642 291.101 149.974 291.022 150.571C290.935 151.22 290.614 151.672 289.949 151.829L289.968 151.81C290.163 152.466 290.351 153.206 291.121 153.334C291.773 153.442 291.836 152.764 292.026 152.318L291.998 152.346C292.345 152.512 292.693 152.678 293.04 152.844L293.031 152.833C293.029 153.016 293.027 153.2 293.024 153.384L293.045 153.365C292.447 154.439 292.258 155.546 292.409 156.8C292.58 158.217 292.708 159.668 292.007 161.053C291.133 162.783 292.091 164.172 293.067 165.474C293.748 166.381 294.658 166.111 294.645 165.132C294.61 162.521 294.964 159.869 294.187 157.304C294.135 157.132 293.765 157.056 293.543 156.935L293.565 156.957C293.966 155.856 295.305 156.618 295.928 155.636C295.829 154.976 295.706 154.16 295.583 153.344L295.612 153.373C295.481 153.265 295.223 153.087 295.238 153.058C297.2 149.458 296.362 145.525 296.523 141.729C296.591 140.115 296.496 138.5 296.845 136.905C296.934 136.494 297.107 135.876 296.909 135.666C295.409 134.079 296.294 132.417 296.638 130.765C296.623 130.632 296.267 130.587 296.542 130.382C296.564 130.517 296.586 130.653 296.608 130.788C296.651 130.715 296.746 130.625 296.729 130.569C295.852 127.612 297.494 124.539 296.328 121.606C295.862 120.433 296.119 119.114 296.337 118.118C296.768 116.164 297.342 114.556 295.886 112.676C295.233 111.835 296.075 110.298 295.97 108.962C295.776 106.484 295.372 103.95 295.657 101.338C296.097 97.3103 296.328 93.1554 293.685 89.4186C292.875 88.2734 292.874 86.2562 293.113 84.7343C293.598 81.6435 293.064 78.6667 292.536 75.7068C292.135 73.4598 293.146 71.0734 291.925 68.9978C291.173 67.7189 292.057 66.0228 290.62 64.9577C289.894 64.419 290.96 63.8652 290.902 63.1345C290.74 61.0852 289.891 59.2253 289.381 57.3117C288.911 55.5506 289.626 53.4213 287.734 51.908C286.923 51.2591 288.208 50.55 288.936 50.1394L288.912 50.1639C288.753 49.6374 288.595 49.111 288.437 48.5846C288.205 48.6156 287.974 48.6467 287.741 48.6778C287.745 48.6034 287.72 48.4857 287.755 48.4649C288.019 48.3049 288.22 48.4612 288.414 48.6231C289.15 47.2086 287.568 46.5391 287.384 45.4118C286.799 41.8134 286.181 38.2216 285.593 34.6241C285.501 34.0572 285.696 33.3254 284.764 33.3511C284.023 33.3735 283.632 33.8924 283.71 34.5412C283.86 35.773 283.316 36.8928 283.283 38.0794C283.246 39.4506 283.143 40.7935 282.043 42.1882C283.594 41.3501 284.155 42.7043 285.562 42.8757C284.09 43.7506 283.708 44.7799 284.316 46.0531L284.299 46.039C284.679 46.1502 285.404 46.0221 285.314 46.5231C285.192 47.1983 284.651 46.6097 284.291 46.573L284.32 46.557Z" fill="#7C6063"/>
<path fill-rule="evenodd" clip-rule="evenodd" d="M283.933 8.14918C283.861 8.11528 283.761 8.09833 283.728 8.04089C283.702 7.99757 283.761 7.90433 283.781 7.83275C283.853 7.86666 283.955 7.88364 283.987 7.93921C284.012 7.98441 283.954 8.07761 283.933 8.14918ZM281.645 13.1113C281.664 13.051 281.685 12.9898 281.706 12.9295C281.814 12.9747 281.925 13.0143 282.026 13.0726C282.037 13.0792 281.988 13.1903 281.968 13.2525C281.859 13.2054 281.752 13.1584 281.645 13.1113ZM282.754 14.1999C282.665 14.3082 282.89 14.6152 282.53 14.5484C282.614 14.4401 282.697 14.3308 282.78 14.2225C282.864 14.1076 282.631 13.7488 283.04 13.8844C282.945 13.9899 282.849 14.0945 282.754 14.1999ZM283.269 18.304L283.192 18.4293L283.3 18.3341L283.269 18.304ZM281.753 7.52294C281.165 8.82537 279.793 9.91873 280.672 11.6092C280.732 10.2022 281.737 10.1363 282.779 10.125L282.858 10.0195L282.753 10.0977C282.756 10.2719 282.758 10.447 282.761 10.6213C282.987 10.9989 283.407 11.3361 283.027 11.871C282.555 11.5046 282.888 11.0102 282.791 10.5977C281.873 10.5073 281.294 11.0535 280.756 11.6779C280.226 12.2618 280.024 12.9323 280.215 13.7083L280.196 13.6904C280.449 15.557 280.478 17.4226 282.063 18.9209C282.627 19.4539 281.942 19.9314 281.221 19.3682L281.245 19.3428C281.04 19.8033 280.635 20.439 281.094 20.746C282.793 21.8845 282.255 23.4101 282.214 25.012C282.17 26.743 281.787 28.683 283.287 30.1465L283.267 30.1267C283.625 30.8876 283.836 31.7531 284.871 32.2437C286.206 30.2632 285.248 28.1095 285.049 26.2072C284.446 20.4588 284.94 14.797 285.54 9.10506C285.759 7.01816 284.777 4.96234 285.114 2.83871C285.167 2.51475 285.266 2.1983 285.343 1.87811L285.319 1.90076C285.669 1.72277 286.019 1.54379 286.368 1.3658L286.349 1.38563C285.696 -0.150358 285.85 -1.82011 286.062 -3.3335C286.538 -6.73225 285.846 -10.1329 286.351 -13.5071L286.375 -13.4836C286.24 -13.6361 286.107 -13.7887 285.972 -13.9422C285.872 -14.0015 285.769 -14.0571 285.665 -14.1099C284.422 -13.1935 284.649 -11.5304 283.79 -10.4192L283.816 -10.4596C284.167 -9.76086 284.555 -8.97077 284.248 -8.25316C283.179 -5.74153 283.993 -2.98221 283.125 -0.464926C282.912 0.151917 283.385 0.891178 283.213 1.23491C282.207 3.24177 283.264 5.71007 281.723 7.55306L281.753 7.52294Z" fill="#7C6063"/>
</svg>
