<svg width="842" height="151" viewBox="0 0 842 151" fill="none" xmlns="http://www.w3.org/2000/svg">
<path d="M88.5 39.2259C56.1 39.6259 2.66666 46.3926 -20 49.7259L-41 278L1174 269.726V44.7261L1054 37.2261H988.5C949.667 40.8927 863 46.0261 827 37.2261C782 26.2261 756 41.2261 737 32.2261C721.8 25.0261 661.333 14.8927 633 10.7261L607 13.726C568 4.22584 489 6.22606 467 4.22606C449.4 2.62606 405 9.89266 385 13.726C328 7.22596 300 14.7259 283 17.7259C266 20.7259 271.5 15.7259 245 17.7259C218.5 19.7259 129 38.7259 88.5 39.2259Z" fill="#FAEBFF"/>
<ellipse opacity="0.05" cx="455.5" cy="88" rx="256.5" ry="45" fill="black"/>
<path fill-rule="evenodd" clip-rule="evenodd" d="M26.161 45.1255C26.1015 45.123 26.0148 45.1437 25.9859 45.1123C25.8621 44.9769 25.9009 44.8711 26.0834 44.848C26.1263 44.8422 26.2081 44.9067 26.2188 44.9521C26.2312 45.0025 26.1833 45.0669 26.161 45.1255ZM133.995 36.7527C134.102 36.6891 134.21 36.5743 134.318 36.5727C134.511 36.5694 134.547 36.6949 134.41 36.8394C134.366 36.8873 134.28 36.9551 134.244 36.9394C134.152 36.8997 134.077 36.8188 133.995 36.7527ZM143.871 35.9012C144.19 34.9234 144.726 34.8622 145.473 34.8507C145.161 35.5667 144.859 36.0028 143.871 35.9012ZM121.541 37.3267C121.493 37.2763 121.434 37.2317 121.399 37.1739C121.374 37.1318 121.379 37.0707 121.37 37.0178L121.521 37.3432C122.155 37.382 122.549 36.2208 123.549 37.0599C122.883 37.8767 122.276 37.9321 121.541 37.3267ZM81.8973 38.2145C81.6025 38.5168 81.3085 38.8191 81.0137 39.1213C81.1566 39.3633 81.3391 39.6193 81.0096 39.839C80.9319 39.8911 80.7675 39.8126 80.6428 39.7936C80.7766 39.564 80.9104 39.3344 81.045 39.1048C80.7634 39.0305 80.2993 38.9562 80.4314 38.6266C80.7114 37.9288 81.311 37.9395 81.9229 38.2401L81.9775 38.16L81.8973 38.2145ZM65.6944 40.0422C67.0703 41.3785 70.2202 41.4313 71.5185 40.0505C72.4427 39.0685 73.328 38.3029 74.7229 39.1395L74.6923 39.1089C75.6363 39.4855 76.6572 38.2063 77.5879 39.2568C77.379 39.8721 76.1319 39.3452 76.316 40.4097C77.0948 41.172 77.967 39.7399 78.7458 40.4906C78.9044 40.4915 79.0621 40.4923 79.2207 40.4931L79.1951 40.4675C79.1505 40.5038 79.0993 40.5765 79.0621 40.5699C78.9605 40.5526 78.8647 40.5022 78.7673 40.4642C77.929 40.9953 76.7884 41.1249 76.3012 42.1482C76.7678 42.6743 77.246 42.4554 77.6515 42.3968C79.6353 42.1118 81.6289 41.4999 83.4996 42.8015C86.4959 41.2876 89.9513 42.6735 93.0319 41.1736C94.8315 40.2974 96.9747 39.8638 98.9898 39.7614C101.417 39.6375 104.037 39.8721 106.267 39.3988C109.189 38.7794 112.399 39.7441 115.064 37.8792C115.693 37.439 116.379 37.8742 117.031 37.7801C117.144 37.7553 117.16 37.42 117.358 37.681L117.015 37.7586C116.85 39.18 114.862 38.4623 114.6 39.9604C115.569 40.3874 116.972 40.4741 117.438 39.8638C118.046 39.0676 118.479 38.1542 119.552 37.5125C119.83 38.16 118.947 38.9429 119.755 39.4517C120.493 39.9158 121.062 39.4178 121.651 39.1833C124.805 37.9263 128.187 38.5234 131.448 37.8346C130.226 38.4135 129.191 39.1758 127.937 39.7275C128.571 40.1809 129.215 40.2999 129.743 40.1809C132.731 39.507 135.978 39.9332 138.696 38.1055C139.165 37.7892 139.702 37.7561 140.21 37.9271C141.598 38.3937 142.698 38.0113 143.999 37.3209C145.263 36.6495 146.946 36.8444 148.426 36.6247C151.013 36.2415 153.502 35.1133 156.19 35.4115C156.331 35.4263 156.491 35.3735 156.626 35.3148C157.671 34.854 158.443 33.7159 159.881 34.1718C160.166 34.2627 160.683 33.592 161.01 32.7183C159.464 33.5953 158.013 32.6431 156.65 33.2881L156.671 33.2658C156.457 34.0603 155.835 33.8522 155.268 33.8778C154.189 33.9265 153.154 34.2181 152.15 34.6128C152.041 34.6533 152.032 35.0093 151.817 34.7177C151.936 34.693 152.055 34.6673 152.173 34.6417C152.163 34.484 152.152 34.3263 152.142 34.1677L152.158 34.1834C151.082 33.7638 150.164 34.5137 149.157 34.5831C148.328 34.6401 147.211 36.2407 146.755 33.9587C146.628 33.3261 145.042 34.0587 144.089 33.9018C143.369 33.7828 142.158 33.6903 142.524 35.2446C142.669 35.8616 142.05 36.1349 141.527 36.2316C141.024 36.3265 140.769 36.1011 140.674 35.5139C140.387 33.7457 138.597 35.3404 137.772 34.2998C137.479 33.9307 137.188 35.1018 136.838 35.5238C137.067 35.7492 137.481 35.85 137.376 36.2993C137.366 36.3414 137.248 36.4009 137.206 36.3852C136.77 36.2233 136.97 35.8021 136.859 35.5056C135.93 35.5535 135.289 35.4561 134.349 34.7706C133.306 34.0108 131.223 34.2338 129.495 35.0258C129.941 35.5989 130.612 36.2588 129.6 36.8799C128.95 37.2796 128.482 37.2284 128.271 36.4116L128.287 36.4306C127.867 36.125 127.446 35.8195 127.006 35.5007C126.211 35.6303 126.456 36.9237 125.543 36.9171C124.776 36.3629 125.816 35.7963 125.425 35.2083C125.274 35.1513 125.053 34.9795 124.874 35.0159C123.288 35.3355 121.601 34.9837 120.08 35.8459C119.582 36.1283 118.775 36.4719 118.373 35.5188L118.388 35.5329C115.674 35.6782 112.967 36.4033 110.242 35.627C110.105 35.5882 109.91 35.5733 109.804 35.6427C107.566 37.1021 104.991 35.5428 102.948 36.1655C99.7653 37.1367 96.4403 35.2034 93.4754 37.1277C93.0963 37.3738 92.6008 37.1871 92.2167 36.889C91.8302 36.5892 91.3033 36.4554 90.9441 36.6908C89.2824 37.7784 87.2648 37.5199 85.509 38.2145C85.2166 38.6778 84.6814 38.9809 84.598 39.5838L84.6228 39.5591C84.2776 39.3972 83.8877 39.1304 84.0149 38.7662C84.2652 38.0502 84.9754 38.2971 85.5254 38.236C85.4569 37.8676 85.3834 37.3077 85.0035 37.3416C81.8214 37.6232 78.5112 35.7129 75.4323 37.8759C75.2878 37.9775 74.9442 37.989 74.8146 37.8883C73.1091 36.5561 71.9463 37.368 70.8776 38.8009C70.3292 39.5351 69.5818 39.5153 68.8831 39.0297C68.243 38.5845 67.6592 38.2839 66.8192 38.5556C62.8707 39.8382 58.7504 39.7069 54.6788 40.0034C53.6745 40.0761 52.6306 40.3271 51.7427 40.9226C51.6354 40.9746 51.6139 41.3091 51.4041 41.0258C51.5197 40.9944 51.6354 40.9622 51.751 40.9308C51.1448 40.2181 50.5386 39.6367 49.9332 40.9308L49.9489 40.9152C47.6034 41.1084 45.3025 41.8946 42.7753 41.5156C41.7933 42.0103 43.5723 43.4167 41.9957 43.9684C41.6901 42.3927 40.7577 41.6874 39.1332 42.2894L39.1505 42.2721C38.1314 43.4994 37.6986 41.7022 36.8917 41.8343L36.9049 41.8203C36.8529 41.85 36.7984 41.9095 36.7497 41.9054C36.6374 41.893 36.5275 41.8501 36.4168 41.8195L36.43 41.8335C35.1078 41.5949 35.4307 43.1194 34.7048 43.5084C32.7681 41.9657 31.8926 41.9409 29.6776 43.4589C29.2762 43.7339 29.0979 44.0271 28.6354 43.5068C28.1192 42.9262 27.5336 43.4985 26.9844 43.6356L26.9976 43.6208C26.9464 43.6554 26.8911 43.724 26.8448 43.7182C26.7309 43.7033 26.621 43.6546 26.5095 43.6191L26.5228 43.6331C25.1791 43.041 23.8692 43.7405 22.5404 43.7661C19.2798 43.8264 16.0167 43.9684 12.7949 44.5556C11.4058 44.8092 9.97951 44.7068 8.58872 44.7795C7.24749 44.8497 6.25313 45.2197 5.07872 45.7499C4.29166 46.1058 2.96694 45.6441 1.88503 45.7829C-0.071484 46.0331 -2.20392 45.3666 -3.92919 46.8821C-4.06133 46.9986 -4.35203 47.044 -4.52546 46.987C-7.7844 45.9175 -10.8559 47.2976 -14 47.6948L-13.9777 47.6717C-11.23 49.7645 -8.31296 50.2096 -4.87481 49.4077C-1.88099 48.709 1.32012 48.8312 4.4081 48.7734C6.61403 48.7321 8.79601 48.4456 10.7624 47.8468C13.9165 46.8871 17.111 47.068 20.27 46.6724C23.04 46.3263 25.7985 45.8391 28.6205 45.787C29.7949 45.7656 30.9363 45.2824 32.0487 46.0191C32.109 46.0588 32.2172 46.1166 32.2527 46.0918C33.9342 44.9397 36.1079 46.5857 37.7746 45.0553C38.8144 44.0989 40.1523 44.8951 41.3465 44.8612C44.5592 44.7695 47.6926 44.1716 50.8384 43.6191C50.8384 43.6191 50.8202 43.6389 50.821 43.6389C50.9821 43.4795 51.1432 43.3201 51.3034 43.1607L51.2885 43.1789C53.4986 43.3945 55.5335 42.7313 57.5347 41.9211C58.2557 41.6287 58.9585 41.618 59.7282 41.7592C61.7219 42.1251 63.4917 40.9589 65.4218 40.8037C65.5408 40.7937 65.6209 40.2916 65.7183 40.0183L65.6944 40.0422Z" fill="#7C6063"/>
<path fill-rule="evenodd" clip-rule="evenodd" d="M843.849 38.1249C843.909 38.1224 843.995 38.1431 844.024 38.1117C844.148 37.9762 844.109 37.8705 843.927 37.8474C843.884 37.8416 843.802 37.906 843.791 37.9515C843.779 38.0018 843.827 38.0663 843.849 38.1249ZM736.015 29.7521C735.908 29.6885 735.801 29.5737 735.692 29.5721C735.499 29.5688 735.464 29.6943 735.6 29.8388C735.645 29.8867 735.73 29.9544 735.766 29.9387C735.859 29.8991 735.934 29.8182 736.015 29.7521ZM726.14 28.9006C725.82 27.9228 725.284 27.8616 724.537 27.8501C724.849 28.5661 725.151 29.0022 726.14 28.9006ZM748.469 30.3261C748.518 30.2757 748.576 30.2311 748.611 30.1733C748.637 30.1312 748.632 30.0701 748.641 30.0172L748.49 30.3426C747.855 30.3814 747.461 29.2202 746.461 30.0593C747.128 30.8761 747.735 30.9315 748.469 30.3261ZM788.113 31.2139C788.408 31.5162 788.702 31.8185 788.997 32.1207C788.854 32.3627 788.671 32.6187 789.001 32.8384C789.078 32.8904 789.243 32.812 789.367 32.793C789.234 32.5634 789.1 32.3338 788.965 32.1042C789.247 32.0299 789.711 31.9556 789.579 31.626C789.299 30.9282 788.699 30.9389 788.087 31.2395L788.033 31.1594L788.113 31.2139ZM804.316 33.0416C802.94 34.3779 799.79 34.4307 798.492 33.0499C797.568 32.0679 796.682 31.3023 795.287 32.1389L795.318 32.1083C794.374 32.4849 793.353 31.2057 792.422 32.2562C792.631 32.8715 793.878 32.3445 793.694 33.4091C792.915 34.1714 792.043 32.7393 791.264 33.49C791.106 33.4909 790.948 33.4917 790.79 33.4925L790.815 33.4669C790.86 33.5032 790.911 33.5759 790.948 33.5693C791.05 33.552 791.146 33.5016 791.243 33.4636C792.081 33.9946 793.222 34.1243 793.709 35.1476C793.242 35.6737 792.764 35.4548 792.359 35.3962C790.375 35.1112 788.381 34.4993 786.511 35.8009C783.514 34.287 780.059 35.6728 776.978 34.173C775.179 33.2968 773.036 32.8632 771.02 32.7608C768.593 32.6369 765.973 32.8715 763.744 32.3982C760.822 31.7788 757.611 32.7434 754.946 30.8786C754.317 30.4384 753.631 30.8736 752.979 30.7795C752.867 30.7547 752.85 30.4194 752.652 30.6804L752.996 30.758C753.16 32.1793 755.149 31.4617 755.41 32.9598C754.442 33.3868 753.039 33.4735 752.572 32.8632C751.964 32.067 751.531 31.1536 750.458 30.5119C750.18 31.1594 751.063 31.9423 750.255 32.4511C749.518 32.9152 748.949 32.4172 748.359 32.1827C745.205 30.9257 741.823 31.5228 738.562 30.834C739.784 31.4129 740.82 32.1752 742.073 32.7269C741.439 33.1803 740.795 33.2993 740.267 33.1803C737.279 32.5064 734.032 32.9326 731.314 31.1049C730.845 30.7886 730.308 30.7555 729.8 30.9265C728.412 31.3931 727.312 31.0107 726.011 30.3203C724.747 29.6488 723.064 29.8438 721.584 29.6241C718.997 29.2409 716.508 28.1127 713.82 28.4109C713.679 28.4257 713.519 28.3729 713.385 28.3142C712.339 27.8534 711.567 26.7153 710.129 27.1712C709.844 27.2621 709.327 26.5914 709 25.7176C710.546 26.5947 711.997 25.6425 713.36 26.2875L713.339 26.2652C713.553 27.0597 714.176 26.8516 714.742 26.8772C715.822 26.9259 716.856 27.2175 717.86 27.6122C717.969 27.6527 717.978 28.0087 718.193 27.7171C718.074 27.6923 717.955 27.6667 717.837 27.6411C717.848 27.4834 717.858 27.3256 717.868 27.1671L717.853 27.1828C718.928 26.7632 719.846 27.5131 720.853 27.5825C721.682 27.6395 722.8 29.24 723.256 26.9581C723.382 26.3255 724.968 27.0581 725.921 26.9011C726.641 26.7822 727.852 26.6897 727.487 28.244C727.341 28.861 727.961 29.1343 728.483 29.2309C728.986 29.3259 729.242 29.1005 729.336 28.5133C729.623 26.7451 731.414 28.3398 732.239 27.2992C732.531 26.93 732.823 28.1011 733.173 28.5232C732.943 28.7486 732.529 28.8494 732.634 29.2987C732.644 29.3408 732.762 29.4003 732.804 29.3846C733.24 29.2227 733.041 28.8015 733.151 28.505C734.08 28.5529 734.721 28.4555 735.661 27.77C736.704 27.0102 738.787 27.2331 740.516 28.0252C740.069 28.5983 739.398 29.2582 740.41 29.8793C741.06 30.279 741.528 30.2278 741.739 29.411L741.723 29.43C742.143 29.1244 742.565 28.8188 743.004 28.5001C743.799 28.6297 743.554 29.9231 744.467 29.9164C745.235 29.3623 744.194 28.7957 744.585 28.2077C744.736 28.1507 744.957 27.9789 745.136 28.0153C746.722 28.3349 748.409 27.9831 749.93 28.8453C750.428 29.1277 751.236 29.4713 751.637 28.5182L751.622 28.5323C754.336 28.6776 757.043 29.4027 759.769 28.6264C759.905 28.5876 760.101 28.5727 760.206 28.6421C762.444 30.1014 765.02 28.5422 767.062 29.1649C770.245 30.1361 773.57 28.2027 776.535 30.127C776.914 30.3732 777.409 30.1865 777.794 29.8884C778.18 29.5886 778.707 29.4548 779.066 29.6901C780.728 30.7778 782.745 30.5193 784.501 31.2139C784.794 31.6772 785.329 31.9803 785.412 32.5832L785.387 32.5584C785.733 32.3966 786.123 32.1298 785.995 31.7656C785.745 31.0495 785.035 31.2965 784.485 31.2354C784.553 30.867 784.627 30.3071 785.007 30.341C788.189 30.6226 791.499 28.7123 794.578 30.8753C794.722 30.9769 795.066 30.9884 795.196 30.8877C796.901 29.5555 798.064 30.3674 799.133 31.8003C799.681 32.5345 800.428 32.5147 801.127 32.029C801.767 31.5839 802.351 31.2833 803.191 31.555C807.14 32.8376 811.26 32.7063 815.331 33.0028C816.336 33.0754 817.38 33.3265 818.268 33.922C818.375 33.974 818.396 34.3085 818.606 34.0252C818.491 33.9938 818.375 33.9616 818.259 33.9302C818.865 33.2175 819.472 32.6361 820.077 33.9302L820.061 33.9145C822.407 34.1078 824.708 34.894 827.235 34.515C828.217 35.0097 826.438 36.4161 828.015 36.9678C828.32 35.392 829.253 34.6867 830.877 35.2888L830.86 35.2715C831.879 36.4987 832.312 34.7016 833.119 34.8337L833.105 34.8197C833.157 34.8494 833.212 34.9089 833.261 34.9048C833.373 34.8924 833.483 34.8494 833.593 34.8189L833.58 34.8329C834.902 34.5942 834.58 36.1188 835.305 36.5078C837.242 34.9651 838.118 34.9403 840.333 36.4583C840.734 36.7333 840.912 37.0265 841.375 36.5062C841.891 35.9256 842.477 36.4979 843.026 36.635L843.013 36.6201C843.064 36.6548 843.119 36.7234 843.165 36.7176C843.279 36.7027 843.389 36.654 843.501 36.6185L843.487 36.6325C844.831 36.0404 846.141 36.7399 847.47 36.7655C850.73 36.8258 853.994 36.9678 857.215 37.555C858.604 37.8086 860.031 37.7062 861.422 37.7788C862.763 37.849 863.757 38.2191 864.932 38.7493C865.719 39.1052 867.043 38.6435 868.125 38.7823C870.082 39.0325 872.214 38.366 873.939 39.8815C874.072 39.998 874.362 40.0434 874.536 39.9864C877.795 38.9169 880.866 40.297 884.01 40.6942L883.988 40.6711C881.24 42.7639 878.323 43.209 874.885 42.4071C871.891 41.7084 868.69 41.8306 865.602 41.7728C863.396 41.7315 861.214 41.445 859.248 40.8462C856.094 39.8865 852.899 40.0674 849.74 39.6718C846.97 39.3257 844.212 38.8384 841.39 38.7864C840.215 38.7649 839.074 38.2818 837.962 39.0185C837.901 39.0581 837.793 39.116 837.758 39.0912C836.076 37.9391 833.902 39.5851 832.236 38.0547C831.196 37.0983 829.858 37.8945 828.664 37.8606C825.451 37.7689 822.318 37.171 819.172 36.6185C819.172 36.6185 819.19 36.6383 819.189 36.6383C819.028 36.4789 818.867 36.3195 818.707 36.1601L818.722 36.1783C816.512 36.3938 814.477 35.7307 812.476 34.9205C811.755 34.6281 811.052 34.6174 810.282 34.7586C808.288 35.1245 806.519 33.9583 804.588 33.803C804.469 33.7931 804.389 33.291 804.292 33.0176L804.316 33.0416Z" fill="#7C6063"/>
<path fill-rule="evenodd" clip-rule="evenodd" d="M237.838 19.8862L237.751 19.764L237.887 19.7408L237.838 19.8862ZM225.105 21.0697C225.046 20.9722 224.987 20.8748 224.929 20.7781C225.042 20.7278 225.167 20.622 225.264 20.6435C225.345 20.6617 225.392 20.8302 225.454 20.9309C225.338 20.9772 225.222 21.0234 225.105 21.0697ZM286.607 16.3018C286.488 16.2564 286.3 16.244 286.26 16.1606C286.149 15.9253 286.314 15.7708 286.528 15.7279C286.637 15.7064 286.845 15.7675 286.877 15.8451C286.975 16.0764 286.813 16.216 286.607 16.3018ZM244.563 17.3474C244.254 17.3598 243.861 17.8017 243.524 17.1889C243.879 16.9906 244.194 16.8948 244.563 17.3474ZM246.088 16.8924C246.159 16.4373 246.195 16.0376 246.763 15.9591C246.827 15.95 247.002 16.1573 246.985 16.2308C246.893 16.605 246.711 16.9171 246.088 16.8924ZM239.952 17.2681C240.66 16.6702 241.336 16.6091 242.459 16.8205C241.449 17.2112 240.865 17.762 239.952 17.2681ZM290.75 15.0382C290.667 15.9327 290.53 16.5414 289.662 16.8684C289.328 15.8179 289.917 15.4809 290.75 15.0382ZM252.907 16.6776C252.854 16.6248 252.79 16.5793 252.754 16.5174C252.727 16.472 252.738 16.4051 252.732 16.3481C252.783 16.4629 252.835 16.5785 252.887 16.6941C253.551 16.7635 254.14 16.9114 254.077 17.8C252.987 18.0726 253.093 17.2301 252.907 16.6776ZM235.808 17.5555C235.541 17.5712 235.213 17.7488 235.087 17.3499C235.061 17.2648 235.194 17.0361 235.273 17.0261C235.677 16.9733 235.703 17.3136 235.783 17.5853C236.17 17.5035 236.5 16.989 236.969 17.4267C236.697 17.805 236.754 18.5383 236.019 18.3542C235.89 18.322 235.876 17.8339 235.808 17.5555ZM223.651 20.7178L223.573 20.6724L223.626 20.7443L223.697 20.7955L223.651 20.7178ZM267.304 18.9397C268.943 19.3196 270.437 20.5287 272.269 19.8127L272.249 19.8325C272.022 19.3601 272.026 18.9554 272.614 18.7803C273.082 18.6416 273.33 18.9191 273.376 19.3295C273.458 20.0555 273.65 20.6509 274.512 20.7211L274.492 20.7468C274.457 20.4527 274.279 20.0373 274.409 19.8837C276.001 18.0123 278.657 16.9361 280.41 17.6142C282.375 18.3732 282.883 17.288 283.888 16.6223C284.833 17.0443 283.542 17.7298 284.369 18.2542C285.131 18.5268 285.74 17.3152 286.675 17.5902C286.829 17.4374 286.982 17.2847 287.136 17.1319C287.394 16.6479 287.683 16.1871 288.34 16.4736C288.55 16.5653 288.669 16.8246 288.512 17.0369C288.091 17.6076 287.595 17.3268 287.115 17.1112C286.962 17.2648 286.81 17.4185 286.657 17.5721C286.919 17.8339 287.234 18.3583 287.433 18.317C289.019 17.9891 290.551 17.3788 292.2 18.208C292.51 18.3633 292.897 17.7265 292.914 17.2409C292.948 16.1796 291.815 17.1839 291.533 16.2696C293.162 15.8988 294.348 14.494 296.393 14.9507C297.945 15.2976 299.571 14.57 301.155 14.3115C303.48 13.9332 305.811 12.9339 308.39 14.2594C309.62 14.8912 311.703 15.3678 313.241 13.9877C313.392 13.8358 313.544 13.683 313.695 13.531C313.945 13.2279 314.243 13.0809 314.603 13.3221C314.666 13.3642 314.688 13.6153 314.636 13.6574C314.281 13.9489 313.995 13.6136 313.681 13.5161C313.529 13.6673 313.376 13.8184 313.223 13.9696C314.333 14.935 315.471 15.6709 316.854 14.4172L316.831 14.4403C317.766 13.6615 317.333 12.6597 317.275 11.7182L317.295 11.738C316.157 11.2871 315.026 10.8981 314.129 12.1782L314.14 12.1658C311.887 11.4184 309.687 11.8826 307.401 12.1576C305.279 12.4136 303.222 13.1032 301.07 13.0916L301.095 13.066C300.636 13.574 300.176 14.2281 299.713 13.0677L299.735 13.0892C296.341 13.5583 292.943 13.2643 289.488 14.1314C285.451 15.1448 281.229 16.0805 276.934 15.7031C276.207 15.6387 275.471 15.5007 274.937 16.325C274.525 16.9601 273.781 16.8717 273.117 16.6999C270.624 16.0549 270.625 16.05 268.68 17.8925C268.134 16.2168 266.965 16.1524 265.474 16.4414C264.489 16.633 263.409 16.3473 262.373 16.2647C261.097 16.1639 259.884 16.2292 258.622 16.657C257.388 17.0757 256.004 17.1996 254.892 16.0813C254.641 15.8278 254.272 15.6114 253.926 15.5462C252.228 15.2274 250.608 14.7765 248.961 14.1934C247.322 13.6128 245.174 13.9522 243.234 14.2371C239.589 14.7715 235.939 15.3463 232.401 16.3068C230.374 16.8568 227.902 16.51 226.32 18.6787C226.076 17.2376 225.155 17.0014 224.03 17.307C223.373 17.4854 222.729 17.7331 223.192 18.7275C223.458 19.3006 223.33 19.3601 222.282 19.3684C222.118 19.5385 222.079 19.8779 221.714 19.7854C221.746 19.4022 222.094 19.5013 222.3 19.3882C221.658 18.2617 220.947 17.8074 219.577 18.5301C218.65 19.0198 217.366 18.6713 216.418 19.3915L216.445 19.3593C216.31 19.7937 216.286 20.1752 216.874 20.2669L216.854 20.2884C217.021 20.2876 217.189 20.2876 217.356 20.2867L217.338 20.2686C220.992 19.8441 223.78 22.3837 227.073 23.4028C227.163 22.4778 226.376 22.6851 226.192 22.0938C226.797 21.7799 227.539 21.5223 227.055 20.4238C226.732 19.6921 227.197 18.6853 228.207 19.3617C229.569 20.2727 230.948 19.5501 232.294 19.7821C232.937 19.8928 233.61 19.0727 234.147 20.3933C234.466 21.1762 235.508 20.0877 236.524 19.4113C235.915 20.9846 236.748 21.2885 237.658 21.3885C238.15 21.443 239.146 22.1169 238.941 20.717C238.892 20.7649 238.85 20.8236 238.793 20.8574C238.751 20.883 238.69 20.8772 238.638 20.8847C238.747 20.8376 238.855 20.7905 238.963 20.7435C239.018 19.4485 240.355 18.5995 241.959 19.0892C243.79 19.6492 245.621 19.0405 247.491 19.3436C248.898 19.5723 248.04 17.9743 247.933 17.1385L247.839 17.0187L247.96 17.1104C248.446 16.9237 248.913 16.6462 249.701 16.8701C248.845 18.2807 248.907 19.5096 250.647 20.1546C250.852 20.2306 251.212 20.4379 251.215 20.4329C252.395 18.2113 255.155 20.1166 256.533 18.3922C256.952 17.8686 257.227 18.1089 257.865 18.4244C258.895 18.9339 260.334 18.7894 261.572 18.6581C262.797 18.5276 263.86 18.7803 264.959 19.2238C265.765 19.5484 266.671 19.9803 267.328 18.91C267.229 18.834 266.934 19.0446 267.017 18.6994C267.113 18.7795 267.209 18.8596 267.304 18.9397Z" fill="#7C6063"/>
<path fill-rule="evenodd" clip-rule="evenodd" d="M198.405 25.6882C200.972 24.352 203.857 24.0695 206.597 23.9952C208.861 23.9332 211.283 23.4625 213.536 24.4412C213.987 24.6369 214.393 24.4726 214.739 24.11C215.396 23.422 215.931 23.8317 216.443 24.3346L216.426 24.3189C218.091 24.3148 219.652 25.4355 221.378 24.7823L221.364 24.8079C221.013 22.4359 220.076 21.3978 217.848 21.8628C216.406 22.1634 215.852 21.558 215.111 20.7759C214.924 20.8296 214.739 20.8882 214.549 20.9295C214.533 20.9328 214.491 20.818 214.461 20.7577C214.652 20.7263 214.844 20.695 215.036 20.6628C215.229 19.9294 215.734 19.5321 216.445 19.3587L216.418 19.3917C215.424 18.0703 214.595 19.0135 213.917 19.6907C213.471 20.1358 213.314 20.8692 212.954 21.6274C210.604 20.7726 208.059 21.0104 205.797 21.3697C203.681 21.7042 201.494 22.4334 199.328 22.6796C196.884 22.9587 194.755 24.4139 192.148 24.148C190.765 24.0067 188.877 24.0117 188.436 26.1648C188.393 26.3762 187.896 26.7156 187.767 26.6562C186.136 25.8988 184.095 27.3004 182.649 25.6759L182.665 25.6916C180.296 25.4991 177.925 25.2068 175.69 26.4175C174.249 27.198 172.774 27.9181 171.057 27.8463C170.844 27.8372 170.543 27.8934 170.423 28.0371C168.916 29.8391 166.812 29.1297 164.934 29.3981C163.67 29.5798 162.439 29.9308 161.5 30.9062C161.119 31.3034 160.764 31.7288 161.203 32.2697C161.561 32.7116 162.113 32.9701 162.6 32.6166C163.887 31.6792 165.637 31.8295 166.843 30.7418C167.192 30.4255 167.594 30.2868 168.069 30.2727C170.293 30.2083 170.75 30.0671 172.836 28.8687C173.193 30.7303 174.302 30.2942 175.454 29.7243L175.435 29.7483C175.858 28.9381 176.76 28.3542 176.202 27.1781C177.416 27.454 177.368 28.2559 177.66 29.0149C180.624 27.5143 183.755 28.189 186.778 27.8438C187.44 27.7686 188.266 27.9776 188.71 27.4953C190.737 25.2943 193.259 25.9418 195.715 26.126L195.829 26.031L195.722 26.1342C197.205 26.3969 197.269 24.9425 197.926 24.1926C198.379 24.6551 197.925 25.3149 198.433 25.6626L198.405 25.6882Z" fill="#7C6063"/>
<path fill-rule="evenodd" clip-rule="evenodd" d="M356.371 10.3333C356.206 10.2309 356.059 10.1896 356.005 10.0954C355.893 9.903 355.899 9.68331 356.166 9.62798C356.27 9.6065 356.504 9.72048 356.503 9.77086C356.501 9.95172 356.424 10.1318 356.371 10.3333ZM358.711 9.93191L359.15 9.01353L359.172 9.03582C357.69 8.36108 356.08 8.81614 354.548 8.51799C353.388 8.2917 353.474 9.81711 352.62 10.0938C352.168 9.71883 352.724 9.23816 352.428 8.83761C352.185 8.5089 351.937 8.26527 351.52 8.3396C351.174 8.40237 351.113 8.63114 351.115 8.99536C351.121 10.2053 350.351 10.0839 349.67 9.65028C347.879 8.50974 346.679 8.53534 344.739 9.903C344.602 10.069 344.887 10.4266 344.481 10.4679C344.573 10.2854 344.666 10.1029 344.758 9.92034C344.313 9.14566 343.711 8.99371 342.951 9.46363L342.968 9.48014C342.304 9.00113 341.917 9.37278 341.59 9.9286L341.608 9.9096C338.417 8.86156 335.178 9.77747 331.963 9.73369C331.425 9.72626 330.876 10.4473 330.332 10.8313L330.358 10.7983C330.356 10.9634 330.355 11.1286 330.355 11.2946L330.346 11.274C332.149 11.174 333.953 10.9667 335.756 11.2806C335.809 10.9585 335.656 10.5571 336.107 10.3721C336.277 10.8024 336.07 11.0609 335.743 11.2698C335.753 11.416 335.763 11.563 335.773 11.7092C338.374 10.9973 340.928 12.3807 343.556 11.895C344.101 11.7943 343.499 12.3683 343.416 12.6301L343.399 12.6135C343.818 12.7779 344.361 13.0455 344.678 12.768C346.217 11.4168 348.116 12.2865 349.817 11.9404C351.199 11.6605 352.798 12.2303 354.297 12.3815C355.652 12.5186 356.737 12.1321 357.927 11.8934C359.134 11.6514 358.657 10.6513 358.732 9.90879C358.656 9.81711 358.367 9.98476 358.459 9.68661C358.543 9.76837 358.627 9.85015 358.711 9.93191Z" fill="#7C6063"/>
<path fill-rule="evenodd" clip-rule="evenodd" d="M206.067 26.5752C205.768 27.1525 205.379 27.4407 204.67 27.0823C205.041 26.3373 205.615 26.6462 206.079 26.5859L206.156 26.5033L206.067 26.5752ZM211.468 30.6262C212.651 31.7221 214.116 31.528 215.541 31.514L215.52 31.533C215.257 30.0662 213.854 29.6062 212.878 29.4815C210.808 29.2155 208.938 28.5978 207.136 27.3936C208.743 27.1773 210.344 26.8932 211.971 27.6497C213.809 28.5036 215.711 29.1049 217.784 28.8224L217.764 28.8555C217.834 28.3599 218.428 28.0147 218.123 27.2722C215.922 27.5506 214.073 26.6925 212.07 25.651C210.166 24.6625 207.694 25.3273 205.475 25.509C204.741 25.5693 204.024 25.8889 203.279 25.5494C202.833 25.3463 202.404 25.3298 202.118 25.8253C201.855 26.2804 201.996 26.7214 202.29 27.0716C202.95 27.8561 203.294 29.1916 204.842 28.5069C205.196 28.35 205.842 28.3913 206.129 28.6217C207.706 29.8886 209.661 30.0769 211.484 30.641L211.545 30.5593L211.468 30.6262Z" fill="#7C6063"/>
<path fill-rule="evenodd" clip-rule="evenodd" d="M330.332 10.8315C330.307 10.4689 330.352 9.84702 330.017 9.85941C328.699 9.90731 327.228 9.3581 325.913 10.7852C327.063 11.0702 328.247 10.8216 328.991 11.7152L328.977 11.7309L329.465 11.7309L329.451 11.716C329.75 11.569 330.048 11.4211 330.347 11.2741L330.355 11.2948C330.201 11.128 330.219 10.9628 330.358 10.7984L330.332 10.8315Z" fill="#7C6063"/>
<path fill-rule="evenodd" clip-rule="evenodd" d="M319.966 11.972C320.782 12.4163 321.653 12.6277 322.7 12.4287C322.769 11.3113 322.137 10.8529 321.28 10.729C320.527 10.62 319.986 10.9776 319.966 11.972Z" fill="#7C6063"/>
<path fill-rule="evenodd" clip-rule="evenodd" d="M301.06 19.393C301.244 18.791 301.428 18.1897 301.66 17.4324C300.697 17.5067 299.919 17.7578 299.042 18.1806C299.502 19.1353 300.544 18.838 301.075 19.3749L301.06 19.393Z" fill="#7C6063"/>
<path fill-rule="evenodd" clip-rule="evenodd" d="M324.062 15.2991C325.089 17.1226 326.846 15.38 328.068 16.2488C326.901 15.0488 325.377 15.6773 324.042 15.3321L324.062 15.2991Z" fill="#7C6063"/>
<path fill-rule="evenodd" clip-rule="evenodd" d="M295.228 18.0202C295.732 18.1631 296.111 18.9378 296.721 18.429C297.03 18.1713 296.83 17.7493 296.516 17.5181C295.831 17.0151 295.485 17.4173 295.244 18.0384L295.228 18.0202Z" fill="#7C6063"/>
<path fill-rule="evenodd" clip-rule="evenodd" d="M306.117 16.0325C306.939 16.6329 307.514 16.8336 308.248 16.1465C307.592 15.6947 306.981 15.812 306.117 16.0325Z" fill="#7C6063"/>
<path fill-rule="evenodd" clip-rule="evenodd" d="M317.772 15.046C317.72 15.4085 317.904 15.5968 318.243 15.5721C318.612 15.5448 318.972 15.4052 319.036 14.9865C319.072 14.7553 318.864 14.5983 318.625 14.5736C318.237 14.5314 317.906 14.6173 317.772 15.046Z" fill="#7C6063"/>
<path fill-rule="evenodd" clip-rule="evenodd" d="M324.552 11.6682C324.86 11.5707 325.067 11.3519 325.113 11.0488C325.169 10.6813 324.942 10.5054 324.595 10.5888C324.273 10.6681 324.132 10.9365 324.145 11.2602C324.155 11.503 324.26 11.6872 324.552 11.6682Z" fill="#7C6063"/>
<path fill-rule="evenodd" clip-rule="evenodd" d="M326.726 13.9871C326.314 13.7203 325.897 13.532 325.337 13.8483C325.846 14.3339 326.313 13.8376 326.742 13.9689L326.726 13.9871Z" fill="#7C6063"/>
<path fill-rule="evenodd" clip-rule="evenodd" d="M320.912 15.301C321.037 15.6132 321.082 16.0039 321.55 15.9915C321.599 15.9906 321.691 15.8973 321.685 15.8593C321.613 15.4084 321.217 15.4183 320.895 15.3241L320.912 15.301Z" fill="#7C6063"/>
<path fill-rule="evenodd" clip-rule="evenodd" d="M317.275 11.7185L317.294 11.7375L317.275 11.7185Z" fill="#7C6063"/>
<path fill-rule="evenodd" clip-rule="evenodd" d="M325.832 12.1692L325.849 12.1865L325.832 12.1692Z" fill="#7C6063"/>
<path fill-rule="evenodd" clip-rule="evenodd" d="M635.334 14.56L635.422 14.4378L635.285 14.4147L635.334 14.56ZM648.067 15.7435C648.126 15.6461 648.185 15.5486 648.243 15.452C648.13 15.4016 648.005 15.2959 647.908 15.3173C647.827 15.3355 647.78 15.504 647.718 15.6047C647.834 15.651 647.95 15.6973 648.067 15.7435ZM586.565 10.9757C586.685 10.9303 586.872 10.9179 586.912 10.8345C587.023 10.5991 586.858 10.4446 586.644 10.4017C586.535 10.3802 586.327 10.4413 586.295 10.519C586.197 10.7502 586.359 10.8898 586.565 10.9757ZM628.609 12.0213C628.919 12.0336 629.311 12.4755 629.649 11.8627C629.293 11.6645 628.978 11.5687 628.609 12.0213ZM627.084 11.5662C627.013 11.1111 626.977 10.7114 626.409 10.6329C626.345 10.6239 626.17 10.8312 626.187 10.9047C626.279 11.2788 626.461 11.591 627.084 11.5662ZM633.221 11.942C632.512 11.344 631.836 11.2829 630.713 11.4943C631.723 11.885 632.307 12.4358 633.221 11.942ZM582.422 9.71208C582.506 10.6065 582.642 11.2152 583.51 11.5422C583.844 10.4917 583.256 10.1548 582.422 9.71208ZM620.265 11.3515C620.318 11.2986 620.382 11.2532 620.419 11.1912C620.445 11.1458 620.434 11.0789 620.44 11.0219C620.389 11.1367 620.337 11.2524 620.286 11.368C619.621 11.4374 619.032 11.5852 619.095 12.4738C620.185 12.7464 620.079 11.904 620.265 11.3515ZM637.364 12.2294C637.632 12.2451 637.959 12.4226 638.085 12.0237C638.111 11.9387 637.978 11.7099 637.899 11.7C637.495 11.6471 637.469 11.9874 637.389 12.2591C637.002 12.1773 636.672 11.6628 636.203 12.1005C636.475 12.4788 636.418 13.2122 637.153 13.028C637.282 12.9958 637.296 12.5077 637.364 12.2294ZM649.521 15.3917L649.599 15.3463L649.547 15.4181L649.476 15.4693L649.521 15.3917ZM605.868 13.6135C604.229 13.9935 602.735 15.2026 600.903 14.4865L600.923 14.5063C601.15 14.0339 601.146 13.6292 600.558 13.4542C600.09 13.3154 599.843 13.5929 599.796 14.0034C599.715 14.7293 599.522 15.3248 598.66 15.395L598.68 15.4206C598.715 15.1266 598.894 14.7111 598.763 14.5575C597.172 12.6861 594.516 11.61 592.762 12.288C590.797 13.047 590.289 11.9618 589.284 11.2961C588.339 11.7181 589.63 12.4036 588.803 12.9281C588.041 13.2006 587.432 11.989 586.497 12.2641C586.343 12.1113 586.19 11.9585 586.036 11.8057C585.779 11.3217 585.489 10.8609 584.832 11.1475C584.622 11.2391 584.503 11.4985 584.66 11.7107C585.081 12.2814 585.577 12.0006 586.057 11.785C586.21 11.9387 586.362 12.0923 586.515 12.2459C586.253 12.5077 585.938 13.0321 585.739 12.9908C584.153 12.663 582.621 12.0526 580.972 12.8818C580.662 13.0371 580.275 12.4003 580.258 11.9147C580.225 10.8535 581.357 11.8577 581.639 10.9435C580.011 10.5726 578.824 9.16782 576.779 9.62453C575.227 9.9714 573.601 9.2438 572.017 8.9853C569.692 8.60704 567.361 7.60773 564.782 8.93328C563.552 9.56508 561.469 10.0416 559.931 8.66155C559.78 8.50959 559.628 8.35681 559.477 8.20484C559.227 7.90174 558.929 7.75473 558.569 7.99589C558.506 8.03801 558.484 8.28908 558.536 8.3312C558.891 8.62274 559.177 8.28743 559.491 8.18997C559.643 8.34111 559.796 8.49226 559.949 8.64339C558.839 9.60885 557.701 10.3447 556.318 9.09101L556.341 9.11414C555.406 8.33533 555.84 7.33353 555.897 6.39203L555.877 6.41185C557.016 5.96092 558.146 5.57193 559.043 6.85205L559.032 6.83966C561.285 6.09224 563.485 6.55639 565.771 6.83141C567.893 7.08743 569.951 7.77704 572.102 7.76548L572.077 7.73987C572.536 8.24779 572.996 8.90189 573.459 7.74152L573.437 7.76299C576.831 8.2321 580.229 7.93809 583.684 8.80527C587.721 9.81862 591.943 10.7543 596.238 10.3769C596.965 10.3125 597.701 10.1746 598.235 10.9988C598.647 11.6339 599.392 11.5455 600.056 11.3738C602.548 10.7287 602.547 10.7238 604.492 12.5663C605.038 10.8906 606.208 10.8262 607.698 11.1153C608.684 11.3069 609.763 11.0211 610.799 10.9385C612.075 10.8378 613.288 10.903 614.55 11.3308C615.784 11.7495 617.168 11.8734 618.28 10.7552C618.531 10.5016 618.901 10.2852 619.247 10.22C620.944 9.90121 622.564 9.45028 624.211 8.86721C625.85 8.28661 627.998 8.62604 629.938 8.91097C633.583 9.44532 637.233 10.0201 640.771 10.9806C642.798 11.5307 645.27 11.1838 646.853 13.3526C647.096 11.9114 648.017 11.6752 649.142 11.9808C649.799 12.1592 650.443 12.4069 649.98 13.4013C649.714 13.9745 649.842 14.0339 650.89 14.0422C651.054 14.2123 651.093 14.5518 651.458 14.4593C651.426 14.076 651.078 14.1751 650.872 14.062C651.514 12.9355 652.225 12.4813 653.595 13.2039C654.522 13.6937 655.806 13.3451 656.754 14.0653L656.727 14.0331C656.862 14.4675 656.886 14.8491 656.298 14.9408L656.318 14.9622C656.151 14.9614 655.984 14.9614 655.816 14.9606L655.834 14.9424C652.18 14.5179 649.392 17.0575 646.099 18.0766C646.009 17.1516 646.796 17.3589 646.981 16.7676C646.375 16.4538 645.633 16.1961 646.118 15.0977C646.44 14.3659 645.975 13.3592 644.965 14.0356C643.604 14.9465 642.224 14.2239 640.878 14.456C640.236 14.5666 639.563 13.7465 639.025 15.0671C638.706 15.85 637.664 14.7615 636.648 14.0851C637.257 15.6584 636.424 15.9624 635.514 16.0623C635.022 16.1168 634.027 16.7907 634.231 15.3909C634.28 15.4388 634.322 15.4974 634.379 15.5313C634.421 15.5569 634.482 15.5511 634.534 15.5585C634.425 15.5114 634.317 15.4644 634.209 15.4173C634.154 14.1223 632.818 13.2733 631.213 13.763C629.382 14.323 627.551 13.7143 625.681 14.0174C624.275 14.2462 625.132 12.6481 625.239 11.8123L625.333 11.6925L625.212 11.7842C624.726 11.5976 624.259 11.3201 623.471 11.5439C624.327 12.9545 624.266 14.1834 622.525 14.8284C622.321 14.9044 621.96 15.1117 621.957 15.1067C620.777 12.8851 618.017 14.7904 616.639 13.066C616.221 12.5424 615.946 12.7827 615.307 13.0982C614.277 13.6078 612.838 13.4632 611.6 13.3319C610.375 13.2014 609.312 13.4542 608.213 13.8977C607.408 14.2222 606.502 14.6542 605.844 13.5838C605.943 13.5078 606.238 13.7184 606.155 13.3732C606.059 13.4533 605.963 13.5334 605.868 13.6135Z" fill="#7C6063"/>
<path fill-rule="evenodd" clip-rule="evenodd" d="M674.767 20.3621C672.2 19.0258 669.316 18.7433 666.575 18.669C664.312 18.6071 661.889 18.1363 659.636 19.115C659.185 19.3107 658.779 19.1464 658.433 18.7838C657.776 18.0959 657.241 18.5055 656.729 19.0085L656.746 18.9928C655.081 18.9886 653.52 20.1094 651.794 19.4561L651.808 19.4817C652.159 17.1098 653.096 16.0716 655.324 16.5366C656.766 16.8372 657.32 16.2318 658.061 15.4497C658.248 15.5034 658.433 15.5621 658.623 15.6033C658.639 15.6067 658.681 15.4918 658.711 15.4316C658.52 15.4002 658.328 15.3688 658.136 15.3366C657.943 14.6032 657.439 14.2059 656.727 14.0325L656.754 14.0656C657.748 12.7441 658.577 13.6873 659.256 14.3645C659.701 14.8097 659.858 15.5431 660.218 16.3012C662.568 15.4464 665.113 15.6843 667.376 16.0435C669.491 16.378 671.678 17.1073 673.844 17.3534C676.288 17.6325 678.417 19.0877 681.024 18.8218C682.407 18.6806 684.295 18.6855 684.736 20.8386C684.779 21.05 685.277 21.3895 685.405 21.33C687.036 20.5727 689.077 21.9742 690.523 20.3497L690.507 20.3654C692.876 20.1729 695.247 19.8806 697.482 21.0913C698.923 21.8718 700.398 22.592 702.116 22.5201C702.328 22.511 702.629 22.5672 702.749 22.7109C704.256 24.513 706.36 23.8035 708.238 24.0719C709.502 24.2536 710.734 24.6046 711.672 25.58C712.053 25.9773 712.408 26.4026 711.969 26.9435C711.611 27.3854 711.059 27.6439 710.573 27.2904C709.285 26.353 707.535 26.5033 706.329 25.4157C705.98 25.0993 705.578 24.9606 705.104 24.9465C702.879 24.8821 702.422 24.7409 700.337 23.5426C699.979 25.4041 698.87 24.968 697.718 24.3982L697.737 24.4221C697.314 23.6119 696.412 23.028 696.97 21.852C695.756 22.1278 695.804 22.9297 695.513 23.6887C692.548 22.1881 689.418 22.8629 686.394 22.5176C685.732 22.4425 684.907 22.6514 684.462 22.1691C682.436 19.9681 679.913 20.6156 677.457 20.7998L677.343 20.7048L677.45 20.8081C675.967 21.0707 675.903 19.6163 675.246 18.8664C674.793 19.3289 675.247 19.9888 674.739 20.3365L674.767 20.3621Z" fill="#7C6063"/>
<path fill-rule="evenodd" clip-rule="evenodd" d="M516.801 5.00711C516.967 4.9047 517.113 4.86341 517.167 4.76926C517.28 4.57683 517.273 4.35714 517.006 4.3018C516.902 4.28033 516.668 4.39431 516.669 4.44468C516.671 4.62555 516.748 4.8056 516.801 5.00711ZM514.461 4.60574L514.022 3.68736L514 3.70965C515.482 3.0349 517.092 3.48997 518.624 3.19182C519.784 2.96553 519.699 4.49094 520.552 4.76761C521.004 4.39266 520.448 3.91199 520.744 3.51143C520.987 3.18273 521.235 2.9391 521.652 3.01343C521.998 3.0762 522.059 3.30497 522.057 3.66919C522.051 4.8791 522.821 4.7577 523.502 4.32411C525.293 3.18357 526.493 3.20917 528.433 4.57683C528.57 4.74283 528.285 5.10043 528.692 5.14173C528.599 4.95921 528.507 4.77669 528.414 4.59417C528.859 3.81949 529.461 3.66753 530.221 4.13746L530.205 4.15397C530.869 3.67496 531.255 4.04661 531.582 4.60242L531.564 4.58343C534.755 3.53539 537.994 4.45129 541.209 4.40752C541.747 4.40009 542.296 5.12108 542.841 5.50512L542.814 5.47209C542.816 5.63726 542.817 5.80244 542.817 5.96844L542.826 5.9478C541.023 5.84787 539.219 5.64057 537.416 5.9544C537.363 5.63231 537.516 5.23092 537.065 5.04593C536.895 5.47621 537.102 5.73472 537.429 5.94366C537.419 6.08985 537.41 6.23685 537.399 6.38303C534.798 5.67112 532.245 7.05448 529.616 6.56886C529.071 6.4681 529.674 7.04209 529.756 7.30389L529.773 7.28737C529.354 7.45172 528.811 7.71931 528.494 7.44181C526.955 6.09067 525.056 6.96032 523.355 6.61428C521.973 6.3343 520.374 6.90416 518.875 7.0553C517.52 7.19239 516.435 6.80589 515.245 6.56721C514.038 6.32523 514.515 5.32508 514.44 4.58261C514.516 4.49094 514.805 4.65858 514.714 4.36044C514.629 4.4422 514.545 4.52398 514.461 4.60574Z" fill="#7C6063"/>
<path fill-rule="evenodd" clip-rule="evenodd" d="M667.105 21.249C667.404 21.8263 667.793 22.1146 668.502 21.7561C668.131 21.0112 667.557 21.3201 667.094 21.2598L667.016 21.1772L667.105 21.249ZM661.704 25.3C660.521 26.3959 659.056 26.2018 657.631 26.1878L657.652 26.2068C657.915 24.74 659.318 24.28 660.294 24.1553C662.364 23.8894 664.234 23.2716 666.036 22.0675C664.429 21.8511 662.828 21.567 661.201 22.3235C659.363 23.1775 657.461 23.7787 655.388 23.4963L655.408 23.5293C655.338 23.0338 654.744 22.6885 655.049 21.9461C657.25 22.2244 659.099 21.3663 661.102 20.3249C663.006 19.3363 665.478 20.0011 667.697 20.1828C668.431 20.2431 669.148 20.5627 669.893 20.2233C670.339 20.0201 670.768 20.0036 671.054 20.4991C671.317 20.9542 671.176 21.3952 670.882 21.7454C670.222 22.53 669.878 23.8654 668.33 23.1808C667.976 23.0239 667.33 23.0651 667.043 23.2956C665.466 24.5625 663.511 24.7508 661.688 25.3149L661.627 25.2331L661.704 25.3Z" fill="#7C6063"/>
<path fill-rule="evenodd" clip-rule="evenodd" d="M542.84 5.5053C542.865 5.14274 542.82 4.52085 543.155 4.53324C544.473 4.58114 545.944 4.03193 547.26 5.45905C546.109 5.74398 544.926 5.49538 544.181 6.38899L544.195 6.40469L543.707 6.40469L543.721 6.38982C543.422 6.24281 543.124 6.09498 542.825 5.94797L542.817 5.96863C542.971 5.8018 542.953 5.63661 542.814 5.47226L542.84 5.5053Z" fill="#7C6063"/>
<path fill-rule="evenodd" clip-rule="evenodd" d="M553.207 6.64583C552.39 7.09015 551.519 7.30157 550.472 7.10254C550.404 5.98512 551.035 5.52675 551.892 5.40287C552.645 5.29386 553.186 5.65147 553.207 6.64583Z" fill="#7C6063"/>
<path fill-rule="evenodd" clip-rule="evenodd" d="M572.112 14.0669C571.928 13.4648 571.744 12.8635 571.512 12.1062C572.475 12.1805 573.254 12.4316 574.131 12.8545C573.671 13.8092 572.628 13.5119 572.097 14.0487L572.112 14.0669Z" fill="#7C6063"/>
<path fill-rule="evenodd" clip-rule="evenodd" d="M549.11 9.9729C548.083 11.7964 546.326 10.0538 545.104 10.9227C546.271 9.72267 547.796 10.3512 549.13 10.0059L549.11 9.9729Z" fill="#7C6063"/>
<path fill-rule="evenodd" clip-rule="evenodd" d="M577.944 12.694C577.441 12.8369 577.061 13.6116 576.451 13.1029C576.142 12.8452 576.342 12.4232 576.656 12.1919C577.341 11.6889 577.687 12.0912 577.928 12.7122L577.944 12.694Z" fill="#7C6063"/>
<path fill-rule="evenodd" clip-rule="evenodd" d="M567.055 10.7063C566.233 11.3068 565.658 11.5075 564.924 10.8203C565.58 10.3686 566.191 10.4858 567.055 10.7063Z" fill="#7C6063"/>
<path fill-rule="evenodd" clip-rule="evenodd" d="M555.4 9.7198C555.453 10.0824 555.268 10.2707 554.929 10.2459C554.56 10.2186 554.2 10.0791 554.136 9.66033C554.101 9.42908 554.308 9.27216 554.547 9.24739C554.936 9.20527 555.266 9.29116 555.4 9.7198Z" fill="#7C6063"/>
<path fill-rule="evenodd" clip-rule="evenodd" d="M548.62 6.34202C548.312 6.24457 548.105 6.02571 548.059 5.72261C548.003 5.35509 548.23 5.17919 548.577 5.2626C548.9 5.34189 549.04 5.6103 549.028 5.93405C549.017 6.17686 548.912 6.36102 548.62 6.34202Z" fill="#7C6063"/>
<path fill-rule="evenodd" clip-rule="evenodd" d="M546.446 8.66089C546.858 8.39413 547.276 8.20583 547.835 8.52214C547.326 9.00776 546.859 8.5114 546.43 8.64272L546.446 8.66089Z" fill="#7C6063"/>
<path fill-rule="evenodd" clip-rule="evenodd" d="M552.261 9.97485C552.135 10.287 552.09 10.6777 551.622 10.6653C551.573 10.6645 551.481 10.5711 551.487 10.5332C551.559 10.0822 551.955 10.0921 552.277 9.99798L552.261 9.97485Z" fill="#7C6063"/>
<path fill-rule="evenodd" clip-rule="evenodd" d="M555.897 6.39233L555.878 6.41133L555.897 6.39233Z" fill="#7C6063"/>
<path fill-rule="evenodd" clip-rule="evenodd" d="M547.34 6.84302L547.323 6.86036L547.34 6.84302Z" fill="#7C6063"/>
<path fill-rule="evenodd" clip-rule="evenodd" d="M442.867 3.75762C442.819 3.86746 442.799 4.0219 442.714 4.07393C442.643 4.11852 442.498 4.0475 442.386 4.02768C442.432 3.91618 442.451 3.7601 442.535 3.70725C442.607 3.66182 442.753 3.73532 442.867 3.75762ZM500.89 1.71603C500.98 1.61693 501.061 1.45092 501.166 1.43275C501.422 1.38816 501.598 1.52443 501.493 1.79945C501.457 1.89525 501.26 1.98445 501.144 1.97702C501.054 1.97041 500.974 1.80936 500.89 1.71603ZM452.717 3.47104C452.57 3.63621 452.414 3.79396 452.171 3.6676C452.135 3.64943 452.144 3.5462 452.132 3.4826C452.334 3.48591 452.537 3.48921 452.74 3.49251L452.717 3.47104ZM459.018 3.01763L458.971 3.10022L459.04 3.04157L459.098 2.97468L459.018 3.01763ZM412.203 11.1204C414.324 11.1947 416.152 10.0211 418.211 9.68828C419.795 9.43143 421.528 9.77665 423.006 8.87313L423.022 8.89791C422.868 8.73191 422.885 8.56756 423.025 8.40404L422.99 8.44202C423.095 8.32475 423.217 8.29998 423.357 8.36853C423.419 8.41808 423.476 8.47341 423.524 8.53783L423.537 8.72778L423.453 8.90121L423.469 8.87562C423.912 9.67259 424.516 10.0517 425.302 9.75683C426.047 9.02262 423.957 8.67162 425.27 7.99192L425.252 7.97374C425.588 8.49322 426.125 8.40321 426.624 8.42303L426.604 8.4379L427.519 7.51125L427.493 7.53934C427.807 7.21064 428.122 7.15943 428.437 7.53686L428.412 7.52117C428.998 7.54512 429.607 7.28579 430.168 7.58641C433.484 9.36206 437.181 10.0236 440.67 11.2699C442.472 11.9132 444.417 12.5739 445.988 13.8408L445.965 13.8193C447.078 13.4675 448.046 13.9234 448.945 14.4561C449.795 14.9591 450.574 14.703 450.808 13.9895C451.023 13.3337 451.712 12.3848 450.457 11.7249C448.871 10.8899 447.331 9.99551 445.514 9.76592C445.513 9.92697 445.51 10.0888 445.508 10.2507C445.838 10.2697 446.253 10.088 446.363 10.6108C446.373 10.6587 446.305 10.7611 446.253 10.7793C445.748 10.9494 445.642 10.586 445.536 10.2292C445.536 10.0806 445.537 9.93274 445.537 9.78491C444.83 9.57018 444.205 10.235 443.277 9.30755C442.28 8.31236 440.274 8.38008 438.718 7.95145C437.5 7.61614 436.353 7.12227 435.144 6.85386C435.015 6.01228 435.818 6.10808 436.084 5.72157L436.069 5.73809C438.056 6.72833 440.202 7.15695 442.367 7.52282L442.353 7.53768C442.405 7.50382 442.461 7.43857 442.509 7.44353C442.622 7.45592 442.731 7.50217 442.842 7.53521L442.829 7.52034C443.593 6.60278 444.342 7.04545 445.09 7.54511C445.216 7.18998 444.903 6.60362 445.72 6.53011C445.794 7.08345 445.425 7.30231 445.068 7.52695C445.307 8.23061 445.74 8.20169 446.265 7.84987C446.94 7.39811 447.596 6.91084 448.302 6.51194C449.533 5.81737 450.701 5.34413 452.212 6.12624C453.431 6.75639 454.928 6.71759 456.34 6.61352L456.319 6.63335C456.779 5.67367 457.011 6.39053 457.322 6.75722C457.812 7.33699 457.974 8.35118 459.001 8.26529C461.341 8.06625 462.968 9.68746 464.888 10.5365C465.926 10.9965 466.896 11.4664 468.053 11.1204L467.943 11.0353L468.031 11.1427C468.077 10.2614 467.831 9.58587 467.203 9.46612C465.149 9.07465 463.315 8.51553 462.085 6.53506C461.642 5.82233 460.1 6.24104 459.17 5.06912C461.884 5.46224 464.298 5.32266 466.712 5.25825L466.679 5.28137C467.016 4.29444 467.493 3.6486 468.593 4.48026C469.106 4.8676 469.713 4.78914 470.299 4.81144L470.276 4.8354C469.908 4.37621 469.7 3.58667 470.52 3.87985C473.09 4.79741 475.461 4.05328 477.857 3.38597C478.874 3.10269 479.358 3.73862 479.982 4.25232C480.415 4.60827 480.461 4.59507 481.115 3.90298C481.443 3.55446 481.779 3.59823 482.109 3.77992C482.964 4.25315 483.829 4.18543 484.712 3.91123L484.684 3.93849C484.758 3.39258 484.843 2.88301 485.622 3.11756C487.298 3.62218 488.951 3.51893 490.698 3.3232C492.023 3.17537 493.386 3.7254 494.822 3.16463C495.599 2.8607 496.009 3.55527 495.499 4.38941L495.519 4.36877C497.921 3.2051 500.315 4.87916 502.714 4.38611C502.96 4.09623 503.225 3.9104 503.563 4.25727C503.602 4.29691 503.622 4.41833 503.594 4.44888C503.255 4.81475 502.985 4.47284 502.693 4.34978C502.606 4.91551 502.897 5.17318 503.42 5.24255C503.99 5.31854 504.386 5.60016 504.524 6.18323L504.507 6.16672C505.083 5.99576 505.731 5.83141 505.843 5.15584C505.938 4.5835 505.344 4.529 504.952 4.36217L504.977 4.38694C505.122 4.08219 505.268 3.77743 505.414 3.47268L505.404 3.48095C505.565 3.4826 505.726 3.48424 505.887 3.48672L505.871 3.46856C506.813 3.993 507.783 4.15816 508.883 4.02602C510.125 3.87654 511.398 3.76422 512.613 4.37868C514.13 5.1451 515.348 4.30518 516.49 3.44874C517.285 2.85163 517.049 2.05382 516.19 2.06538C513.901 2.09594 511.574 1.7854 509.325 2.46676C509.174 2.51218 509.107 2.83676 509.001 3.03167L509.02 3.01267C508.055 2.66085 508.723 1.48643 507.863 0.939701C507.284 1.02724 506.568 1.13461 505.852 1.2428L505.878 1.2172C505.783 1.33199 505.627 1.55829 505.601 1.54507C502.444 -0.175239 498.995 0.559798 495.666 0.418572C494.25 0.359109 492.835 0.441701 491.436 0.136124C491.076 0.0576656 490.533 -0.0934779 490.349 0.0799575C488.957 1.39559 487.5 0.619267 486.051 0.31782C485.935 0.330208 485.895 0.643209 485.715 0.402051C485.834 0.38223 485.953 0.363236 486.072 0.343414C486.007 0.30625 485.929 0.222843 485.879 0.237709C483.286 1.00661 480.591 -0.432912 478.019 0.589531C476.99 0.998343 475.833 0.772882 474.96 0.581277C473.246 0.203849 471.836 -0.299949 470.187 0.976866C469.45 1.5492 468.102 0.810872 466.93 0.903371C464.757 1.0735 462.535 1.42781 460.245 1.17756C456.712 0.791878 453.069 0.589532 449.791 2.90696C448.787 3.61722 447.018 3.61805 445.684 3.4091C442.973 2.98377 440.362 3.45204 437.767 3.91454C435.796 4.26636 433.703 3.38019 431.883 4.45054C430.761 5.11042 429.274 4.33491 428.34 5.59521C427.868 6.23197 427.382 5.29707 426.741 5.34744C424.944 5.4895 423.313 6.23444 421.635 6.68207C420.09 7.09418 418.223 6.46651 416.896 8.12571C416.327 8.83762 415.705 7.71029 415.345 7.07188L415.366 7.09254C414.905 7.23211 414.443 7.37085 413.981 7.5096C414.008 7.71277 414.036 7.91593 414.063 8.11993C413.998 8.11662 413.894 8.1381 413.876 8.10754C413.736 7.87629 413.873 7.69956 414.015 7.52942C412.775 6.88441 412.187 8.27189 411.199 8.43294C408.043 8.94581 404.893 9.48759 401.738 10.0038C401.241 10.0847 400.599 9.91293 400.622 10.7306C400.642 11.3805 401.097 11.7233 401.666 11.6547C402.746 11.5234 403.728 12.0008 404.768 12.0297C405.971 12.0619 407.149 12.1519 408.372 13.1165C407.637 11.7563 408.824 11.2649 408.975 10.031C409.742 11.3219 410.645 11.6564 411.761 11.1237L411.749 11.1385C411.846 10.8049 411.734 10.169 412.173 10.2482C412.765 10.3556 412.249 10.8297 412.217 11.1451L412.203 11.1204Z" fill="#7C6063"/>
<path fill-rule="evenodd" clip-rule="evenodd" d="M378.521 11.4594C378.491 11.5222 378.476 11.6105 378.426 11.6394C378.388 11.6617 378.306 11.6105 378.243 11.5924C378.273 11.5296 378.288 11.4404 378.336 11.4123C378.376 11.39 378.458 11.4412 378.521 11.4594ZM382.872 13.4663C382.819 13.4489 382.766 13.4308 382.713 13.4126C382.752 13.3176 382.787 13.2202 382.838 13.1318C382.844 13.1219 382.942 13.1648 382.996 13.183C382.955 13.278 382.913 13.3721 382.872 13.4663ZM383.827 12.4934C383.922 12.571 384.191 12.3745 384.132 12.69C384.037 12.6165 383.942 12.5429 383.847 12.4703C383.746 12.3968 383.431 12.6016 383.55 12.2423C383.643 12.3257 383.734 12.41 383.827 12.4934ZM387.426 12.0416L387.536 12.1094L387.452 12.0144L387.426 12.0416ZM377.971 13.3713C379.114 13.8867 380.072 15.09 381.555 14.3194C380.321 14.2666 380.263 13.3853 380.253 12.4711L380.161 12.4025L380.229 12.4942C380.382 12.4917 380.536 12.4901 380.688 12.4876C381.02 12.2886 381.315 11.9211 381.784 12.2539C381.463 12.6677 381.03 12.3761 380.668 12.4612C380.589 13.2656 381.068 13.7735 381.615 14.2459C382.127 14.7101 382.715 14.8876 383.396 14.72L383.38 14.7365C385.017 14.5143 386.653 14.4896 387.967 13.0996C388.434 12.6049 388.853 13.2053 388.359 13.8379L388.337 13.8165C388.741 13.9965 389.298 14.3516 389.568 13.9494C390.566 12.4595 391.904 12.9311 393.309 12.9666C394.827 13.0054 396.528 13.3416 397.812 12.0259L397.794 12.0433C398.462 11.7294 399.22 11.5444 399.651 10.6368C397.914 9.4657 396.025 10.3065 394.357 10.4807C389.316 11.0093 384.35 10.5765 379.359 10.0504C377.529 9.858 375.726 10.7194 373.863 10.4237C373.579 10.3775 373.302 10.2908 373.021 10.223L373.041 10.2437C372.885 9.93728 372.728 9.63006 372.572 9.32365L372.589 9.341C371.242 9.91333 369.778 9.77789 368.451 9.59206C365.47 9.17499 362.488 9.78202 359.529 9.33853L359.549 9.31787C359.415 9.43597 359.282 9.55326 359.147 9.67136C359.095 9.7589 359.046 9.84892 359 9.9406C359.804 11.0308 361.262 10.8317 362.237 11.5849L362.201 11.5618C362.814 11.2546 363.507 10.9143 364.136 11.1827C366.339 12.1209 368.759 11.4065 370.966 12.168C371.507 12.3546 372.155 11.94 372.457 12.0912C374.217 12.9732 376.382 12.0458 377.998 13.3977L377.971 13.3713Z" fill="#7C6063"/>
</svg>
