<svg width="295" height="595" viewBox="0 0 295 595" fill="none" xmlns="http://www.w3.org/2000/svg">
<path d="M44.7288 -54.3327C45.1849 -91.2781 52.9009 -152.207 56.7018 -178.054L317 -202L307.565 1183.45L51.0005 1183.45L42.4484 1046.62L42.4484 971.926C46.6294 927.645 52.4829 828.82 42.4484 787.77C29.9052 736.457 47.0095 706.809 36.7469 685.144C28.5369 667.812 16.982 598.862 12.2308 566.554L15.6515 536.906C4.81862 492.435 7.09945 402.353 4.81887 377.266C2.99441 357.197 11.2804 306.568 15.6515 283.763C8.23962 218.766 16.7917 186.838 20.2126 167.453C23.6335 148.068 17.932 154.34 20.2126 124.122C22.4932 93.9047 44.1587 -8.15108 44.7288 -54.3327Z" fill="#DEDCFF"/>
<path fill-rule="evenodd" clip-rule="evenodd" d="M51.4561 -125.417C51.4532 -125.485 51.4768 -125.584 51.441 -125.617C51.2865 -125.758 51.166 -125.714 51.1396 -125.506C51.133 -125.457 51.2065 -125.363 51.2583 -125.351C51.3157 -125.337 51.3892 -125.392 51.4561 -125.417ZM41.9086 -2.45541C41.8361 -2.33299 41.7052 -2.21057 41.7034 -2.0872C41.6996 -1.86684 41.8427 -1.82634 42.0075 -1.98173C42.0622 -2.03258 42.1394 -2.13057 42.1215 -2.17107C42.0763 -2.27653 41.984 -2.36218 41.9086 -2.45541ZM40.9377 8.80591C39.8227 9.17036 39.753 9.78156 39.7398 10.6329C40.5563 10.2769 41.0535 9.93317 40.9377 8.80591ZM42.5632 -16.656C42.5057 -16.7116 42.4549 -16.7784 42.3889 -16.818C42.3409 -16.8472 42.2712 -16.8415 42.211 -16.8519L42.582 -16.6795C42.6263 -15.9563 41.3022 -15.507 42.259 -14.3666C43.1904 -15.1266 43.2535 -15.8188 42.5632 -16.656ZM43.5755 -61.8616C43.9202 -62.1978 44.2649 -62.533 44.6096 -62.8692C44.8855 -62.7063 45.1774 -62.4982 45.4279 -62.8739C45.4873 -62.9625 45.3978 -63.1499 45.3762 -63.2921C45.1144 -63.1395 44.8525 -62.987 44.5907 -62.8335C44.506 -63.1546 44.4212 -63.6838 44.0455 -63.5332C43.2497 -63.2139 43.2619 -62.5302 43.6047 -61.8324L43.5134 -61.7702L43.5755 -61.8616ZM45.6596 -80.3376C47.1834 -78.7687 47.2436 -75.1769 45.669 -73.6964C44.5493 -72.6426 43.6763 -71.6331 44.6303 -70.0425L44.5954 -70.0774C45.0249 -69.001 43.5661 -67.8369 44.764 -66.7756C45.4656 -67.0138 44.8648 -68.4359 46.0787 -68.2259C46.9479 -67.3378 45.3149 -66.3433 46.171 -65.4553C46.1719 -65.2745 46.1729 -65.0946 46.1738 -64.9138L46.1446 -64.943C46.186 -64.9938 46.2689 -65.0522 46.2614 -65.0946C46.2416 -65.2104 46.1842 -65.3197 46.1408 -65.4308C46.7464 -66.3867 46.8942 -67.6872 48.0611 -68.2429C48.6609 -67.7108 48.4114 -67.1655 48.3445 -66.7031C48.0196 -64.441 47.3218 -62.1677 48.806 -60.0346C47.0798 -56.618 48.66 -52.6777 46.9498 -49.165C45.9506 -47.113 45.4562 -44.6691 45.3394 -42.3712C45.1982 -39.6035 45.4656 -36.6163 44.926 -34.0735C44.2197 -30.7417 45.3197 -27.0811 43.1932 -24.0421C42.6912 -23.3245 43.1875 -22.5428 43.0802 -21.7989C43.0519 -21.6708 42.6696 -21.652 42.9672 -21.4259L43.0557 -21.8177C44.6764 -22.0051 43.8581 -24.2728 45.5664 -24.5713C46.0533 -23.4667 46.1521 -21.8667 45.4562 -21.3346C44.5484 -20.6415 43.5068 -20.148 42.7751 -18.9247C43.5134 -18.6073 44.4062 -19.614 44.9863 -18.693C45.5155 -17.852 44.9476 -17.2032 44.6802 -16.5308C43.2469 -12.9342 43.9277 -9.0778 43.1423 -5.3598C43.8025 -6.75264 44.6717 -7.93356 45.3008 -9.36313C45.8178 -8.63986 45.9534 -7.9053 45.8178 -7.30353C45.0494 -3.8963 45.5353 -0.194335 43.4512 2.90495C43.0905 3.43985 43.0529 4.05292 43.2478 4.6321C43.7799 6.21422 43.3439 7.46866 42.5566 8.9519C41.7909 10.3937 42.0132 12.313 41.7627 14.0006C41.3257 16.9501 40.0393 19.7886 40.3793 22.8539C40.3962 23.014 40.3359 23.1967 40.2691 23.3502C39.7436 24.5425 38.4459 25.423 38.9657 27.0626C39.0693 27.3875 38.3046 27.977 37.3082 28.35C38.3083 26.587 37.2225 24.9323 37.958 23.3784L37.9326 23.402C38.8385 23.1581 38.6013 22.448 38.6304 21.802C38.686 20.5712 39.0184 19.3921 39.4686 18.2469C39.5147 18.1226 39.9206 18.1122 39.5882 17.8674C39.5599 18.003 39.5307 18.1386 39.5015 18.2733C39.3217 18.261 39.1418 18.2488 38.961 18.2375L38.9789 18.2554C38.5005 17.0292 39.3556 15.982 39.4347 14.834C39.4997 13.8885 41.3248 12.6143 38.7227 12.0945C38.0014 11.9504 38.8367 10.1413 38.6577 9.05457C38.5221 8.2343 38.4167 6.85274 40.189 7.26994C40.8925 7.43568 41.2042 6.7294 41.3144 6.13329C41.4227 5.55975 41.1656 5.26874 40.496 5.16045C38.4798 4.83365 40.2983 2.79198 39.1117 1.85118C38.6907 1.51779 40.0261 1.18532 40.5073 0.786026C40.7644 1.04782 40.8793 1.51968 41.3916 1.40007C41.4396 1.38878 41.5075 1.25406 41.4896 1.20602C41.305 0.708786 40.8247 0.936707 40.4866 0.810517C40.5412 -0.248947 40.4301 -0.979751 39.6485 -2.05145C38.7821 -3.24088 39.0363 -5.61594 39.9395 -7.58701C40.593 -7.07753 41.3455 -6.31284 42.0537 -7.46648C42.5095 -8.20763 42.4511 -8.74161 41.5197 -8.98175L41.5414 -8.96382C41.1929 -9.44316 40.8445 -9.92348 40.481 -10.4245C40.6288 -11.3314 42.1036 -11.0517 42.0961 -12.0932C41.4641 -12.9681 40.8181 -11.7815 40.1476 -12.227C40.0826 -12.3993 39.8867 -12.6517 39.9282 -12.856C40.2926 -14.6642 39.8914 -16.5882 40.8746 -18.3219C41.1967 -18.8898 41.5885 -19.8109 40.5017 -20.2685L40.5177 -20.2516C40.6834 -23.3461 41.5103 -26.4332 40.625 -29.541C40.5808 -29.6963 40.5638 -29.9195 40.6429 -30.04C42.307 -32.5922 40.529 -35.5285 41.2391 -37.8575C42.3466 -41.487 40.1419 -45.2784 42.3362 -48.6593C42.6168 -49.0915 42.404 -49.6566 42.064 -50.0945C41.7222 -50.5353 41.5696 -51.136 41.838 -51.5457C43.0783 -53.4405 42.7835 -55.7412 43.5755 -57.7433C44.1038 -58.0767 44.4495 -58.687 45.137 -58.7821L45.1087 -58.7538C44.9241 -59.1475 44.6199 -59.592 44.2046 -59.4469C43.3881 -59.1616 43.6697 -58.3517 43.6 -57.7245C43.18 -57.8027 42.5415 -57.8865 42.5801 -58.3197C42.9013 -61.9482 40.723 -65.7228 43.1894 -69.2336C43.3052 -69.3984 43.3184 -69.7901 43.2035 -69.938C41.6845 -71.8827 42.6103 -73.2086 44.2442 -74.4272C45.0814 -75.0526 45.0588 -75.9049 44.505 -76.7016C43.9974 -77.4314 43.6547 -78.0972 43.9645 -79.055C45.427 -83.5574 45.2773 -88.2558 45.6154 -92.8986C45.6982 -94.0438 45.9845 -95.2341 46.6635 -96.2465C46.7229 -96.3689 47.1043 -96.3935 46.7812 -96.6327C46.7455 -96.5008 46.7087 -96.3689 46.6729 -96.2371C45.8602 -96.9283 45.1972 -97.6196 46.6729 -98.3099L46.655 -98.292C46.8754 -100.967 47.7719 -103.59 47.3397 -106.472C47.9038 -107.592 49.5076 -105.563 50.1367 -107.361C48.3398 -107.709 47.5356 -108.773 48.2221 -110.625L48.2023 -110.605C49.6018 -111.767 47.5525 -112.261 47.7032 -113.181L47.6872 -113.166C47.7211 -113.225 47.7889 -113.287 47.7842 -113.343C47.7701 -113.471 47.7211 -113.596 47.6863 -113.722L47.7023 -113.707C47.4301 -115.215 49.1685 -114.847 49.6121 -115.675C47.8529 -117.883 47.8247 -118.881 49.5556 -121.407C49.8692 -121.865 50.2035 -122.068 49.6102 -122.596C48.9482 -123.184 49.6008 -123.852 49.7571 -124.478L49.7402 -124.463C49.7798 -124.521 49.8579 -124.585 49.8513 -124.637C49.8344 -124.767 49.7788 -124.893 49.7383 -125.02L49.7543 -125.005C49.0791 -126.537 49.8768 -128.03 49.9059 -129.546C49.9747 -133.264 50.1367 -136.984 50.8062 -140.658C51.0954 -142.242 50.9786 -143.869 51.0615 -145.455C51.1415 -146.984 51.5634 -148.118 52.168 -149.457C52.5739 -150.354 52.0475 -151.865 52.2057 -153.099C52.491 -155.33 51.731 -157.761 53.4591 -159.729C53.5919 -159.879 53.6437 -160.211 53.5787 -160.408C52.3592 -164.125 53.9328 -167.627 54.3858 -171.212L54.3595 -171.187C56.7458 -168.054 57.2534 -164.727 56.339 -160.807C55.5423 -157.393 55.6817 -153.743 55.6157 -150.222C55.5686 -147.706 55.2419 -145.218 54.5591 -142.976C53.4648 -139.379 53.671 -135.737 53.2199 -132.134C52.8253 -128.976 52.2697 -125.83 52.2104 -122.613C52.1859 -121.273 51.635 -119.972 52.475 -118.703C52.5202 -118.635 52.5862 -118.511 52.5579 -118.471C51.2442 -116.553 53.1211 -114.075 51.376 -112.174C50.2855 -110.989 51.1933 -109.463 51.1547 -108.101C51.0502 -104.438 50.3683 -100.865 49.7383 -97.2777C49.7383 -97.2777 49.7609 -97.2985 49.7609 -97.2975C49.5792 -97.1139 49.3974 -96.9302 49.2156 -96.7475L49.2364 -96.7645C49.4822 -94.2444 48.7259 -91.9239 47.8021 -89.6421C47.4687 -88.8199 47.4565 -88.0185 47.6175 -87.1408C48.0347 -84.8674 46.705 -82.8493 46.5279 -80.6484C46.5166 -80.5128 45.944 -80.4215 45.6323 -80.3103L45.6596 -80.3376Z" fill="#7C6063"/>
<path fill-rule="evenodd" clip-rule="evenodd" d="M22.676 115.956L22.5366 115.856L22.5103 116.011L22.676 115.956ZM24.0256 101.436C23.9144 101.369 23.8033 101.302 23.6931 101.235C23.6357 101.364 23.5151 101.507 23.5396 101.618C23.5603 101.71 23.7524 101.764 23.8673 101.834C23.9201 101.702 23.9728 101.57 24.0256 101.436ZM18.5889 171.567C18.5371 171.43 18.5229 171.216 18.4278 171.171C18.1594 171.044 17.9833 171.232 17.9343 171.476C17.9099 171.601 17.9796 171.838 18.0681 171.875C18.3318 171.986 18.4909 171.801 18.5889 171.567ZM19.7811 123.624C19.7952 123.271 20.2991 122.824 19.6003 122.439C19.3743 122.844 19.265 123.203 19.7811 123.624ZM19.2622 125.363C18.7433 125.444 18.2875 125.485 18.198 126.132C18.1877 126.206 18.4241 126.405 18.5079 126.386C18.9345 126.281 19.2905 126.074 19.2622 125.363ZM19.6907 118.366C19.0089 119.174 18.9392 119.944 19.1803 121.225C19.6257 120.073 20.2539 119.407 19.6907 118.366ZM17.148 176.29C18.1679 176.195 18.862 176.04 19.2349 175.05C18.037 174.669 17.6528 175.34 17.148 176.29ZM19.0174 133.139C18.9571 133.078 18.9053 133.005 18.8347 132.964C18.7829 132.933 18.7066 132.946 18.6416 132.939C18.7725 132.997 18.9043 133.057 19.0362 133.115C19.1153 133.873 19.2839 134.545 20.2972 134.472C20.608 133.23 19.6474 133.351 19.0174 133.139ZM20.0184 113.641C20.0363 113.336 20.2388 112.962 19.7839 112.819C19.6869 112.789 19.4261 112.94 19.4148 113.031C19.3545 113.491 19.7425 113.521 20.0523 113.613C19.9591 114.053 19.3724 114.43 19.8715 114.965C20.3028 114.654 21.1391 114.719 20.9291 113.881C20.8924 113.734 20.3358 113.718 20.0184 113.641ZM23.6244 99.7785L23.5726 99.6899L23.6545 99.7493L23.7129 99.8302L23.6244 99.7785ZM21.5968 149.555C22.03 151.425 23.4087 153.128 22.5922 155.217L22.6148 155.194C22.0761 154.935 21.6147 154.94 21.415 155.611C21.2568 156.144 21.5732 156.426 22.0413 156.479C22.8691 156.572 23.5481 156.792 23.6281 157.775L23.6573 157.752C23.3221 157.712 22.8484 157.508 22.6732 157.657C20.5392 159.472 19.3121 162.5 20.0853 164.5C20.9508 166.741 19.7133 167.32 18.9543 168.465C19.4355 169.544 20.2171 168.071 20.8151 169.014C21.1259 169.883 19.7444 170.578 20.058 171.644C19.8837 171.819 19.7095 171.994 19.5353 172.169C18.9834 172.463 18.458 172.793 18.7847 173.542C18.8893 173.782 19.185 173.917 19.427 173.738C20.0778 173.258 19.7576 172.693 19.5118 172.146C19.6869 171.972 19.8621 171.797 20.0373 171.623C20.3358 171.922 20.9338 172.281 20.8867 172.508C20.5128 174.316 19.8169 176.063 20.7624 177.944C20.9394 178.297 20.2134 178.739 19.6596 178.758C18.4495 178.796 19.5946 177.505 18.5521 177.183C18.1293 179.04 16.5274 180.394 17.0482 182.725C17.4437 184.495 16.614 186.349 16.3192 188.155C15.8879 190.806 14.7484 193.464 16.2599 196.405C16.9804 197.807 17.5237 200.183 15.9501 201.937C15.7768 202.109 15.6026 202.283 15.4293 202.455C15.0837 202.739 14.9161 203.079 15.191 203.49C15.2391 203.561 15.5254 203.587 15.5734 203.527C15.9058 203.123 15.5235 202.797 15.4124 202.439C15.5847 202.265 15.757 202.09 15.9294 201.916C17.0303 203.182 17.8694 204.48 16.4398 206.057L16.4662 206.031C15.5781 207.097 14.4358 206.602 13.3622 206.536L13.3848 206.559C12.8706 205.261 12.427 203.972 13.8867 202.949L13.8726 202.962C13.0203 200.392 13.5496 197.885 13.8632 195.278C14.1551 192.858 14.9415 190.512 14.9283 188.058L14.8991 188.087C15.4783 187.563 16.2241 187.039 14.901 186.511L14.9255 186.536C15.4604 182.666 15.1251 178.791 16.114 174.851C17.2695 170.248 18.3365 165.434 17.9061 160.536C17.8326 159.707 17.6754 158.868 18.6152 158.259C19.3394 157.789 19.2387 156.94 19.0428 156.183C18.3073 153.341 18.3016 153.342 20.4027 151.124C18.4919 150.502 18.4184 149.168 18.748 147.468C18.9665 146.345 18.6407 145.114 18.5465 143.932C18.4316 142.478 18.506 141.095 18.9938 139.656C19.4713 138.249 19.6125 136.67 18.3374 135.402C18.0483 135.115 17.8016 134.695 17.7272 134.3C17.3637 132.365 16.8495 130.517 16.1846 128.639C15.5225 126.77 15.9096 124.321 16.2345 122.109C16.8438 117.952 17.4993 113.79 18.5945 109.756C19.2217 107.444 18.8262 104.626 21.2992 102.821C19.6559 102.543 19.3865 101.493 19.735 100.211C19.9384 99.4611 20.2209 98.7265 21.3548 99.2548C22.0083 99.5581 22.0761 99.4121 22.0856 98.217C22.2796 98.0306 22.6666 97.9863 22.5611 97.5701C22.1242 97.6058 22.2372 98.0032 22.1082 98.2377C20.8236 97.506 20.3057 96.6952 21.1297 95.1328C21.6881 94.0762 21.2907 92.6118 22.1119 91.5307L22.0752 91.5617C22.5705 91.4073 23.0056 91.38 23.1102 92.0505L23.1347 92.0279C23.1337 92.2181 23.1337 92.4093 23.1328 92.6005L23.1121 92.5798C22.628 96.746 25.5239 99.9253 26.686 103.68C25.6312 103.783 25.8676 102.885 25.1933 102.675C24.8354 103.366 24.5416 104.212 23.2891 103.659C22.4547 103.291 21.3067 103.821 22.078 104.973C23.1168 106.526 22.2927 108.099 22.5574 109.634C22.6836 110.366 21.7484 111.134 23.2543 111.747C24.147 112.111 22.9058 113.299 22.1345 114.457C23.9285 113.763 24.2751 114.713 24.3891 115.75C24.4512 116.312 25.2197 117.447 23.6234 117.213C23.678 117.157 23.7449 117.109 23.7835 117.044C23.8127 116.996 23.8061 116.928 23.8146 116.868C23.7609 116.992 23.7072 117.115 23.6536 117.238C22.1769 117.301 21.2088 118.825 21.7672 120.655C22.4057 122.743 21.7117 124.831 22.0573 126.963C22.3182 128.567 20.4959 127.589 19.5428 127.467L19.4063 127.359L19.5108 127.498C19.298 128.051 18.9816 128.585 19.2368 129.483C20.8453 128.506 22.2466 128.577 22.9821 130.561C23.0687 130.795 23.3051 131.206 23.2995 131.209C20.7662 132.555 22.9388 135.702 20.9724 137.273C20.3753 137.75 20.6494 138.064 21.0091 138.792C21.5902 139.966 21.4254 141.608 21.2756 143.02C21.1269 144.416 21.415 145.628 21.9208 146.882C22.2909 147.8 22.7834 148.833 21.5629 149.583C21.4762 149.47 21.7164 149.133 21.3227 149.228C21.4141 149.338 21.5054 149.447 21.5968 149.555Z" fill="#7C6063"/>
<path fill-rule="evenodd" clip-rule="evenodd" d="M29.2921 70.9905C27.7683 73.9174 27.4462 77.2069 27.3615 80.3317C27.2908 82.913 26.7541 85.6751 27.87 88.2442C28.0932 88.7584 27.9058 89.2217 27.4924 89.6163C26.7079 90.365 27.175 90.9752 27.7485 91.5591L27.7306 91.5403C27.7259 93.4388 29.0039 95.2187 28.259 97.187L28.2882 97.171C25.5835 96.7707 24.3997 95.7018 24.9299 93.161C25.2727 91.5167 24.5824 90.8848 23.6906 90.0401C23.7518 89.8272 23.8186 89.6163 23.8657 89.3997C23.8695 89.3809 23.7386 89.3338 23.6698 89.2989C23.6341 89.5174 23.5983 89.7359 23.5615 89.9544C22.7253 90.1747 22.2723 90.7501 22.0745 91.5619L22.1122 91.5309C20.6054 90.397 21.6809 89.4524 22.4531 88.6783C22.9607 88.1698 23.797 87.9908 24.6615 87.5802C23.6868 84.901 23.958 81.9985 24.3677 79.4191C24.7491 77.0073 25.5806 74.5126 25.8613 72.0433C26.1796 69.2567 27.8389 66.8289 27.5357 63.8558C27.3747 62.2784 27.3803 60.1256 29.8354 59.6227C30.0765 59.5737 30.4636 59.0068 30.3958 58.8599C29.5322 57.0009 31.1303 54.6729 29.2779 53.0239L29.2958 53.0427C29.0764 50.3409 28.743 47.6381 30.1236 45.0888C31.0136 43.4454 31.8348 41.7635 31.7528 39.8056C31.7425 39.5635 31.8065 39.2198 31.9704 39.0833C34.0253 37.3646 33.2163 34.966 33.5224 32.8244C33.7296 31.3826 34.1298 29.9785 35.242 28.9087C35.695 28.4736 36.18 28.0686 36.7968 28.5696C37.3006 28.9774 37.5954 29.6074 37.1924 30.1621C36.1235 31.6303 36.2949 33.6259 35.0546 35.0008C34.6939 35.3992 34.5357 35.8569 34.5197 36.3984C34.4462 38.9345 34.2852 39.4562 32.9187 41.8341C35.0414 42.2419 34.5442 43.5066 33.8944 44.8204L33.9217 44.7987C32.9978 45.2809 32.332 46.3093 30.991 45.6726C31.3055 47.057 32.2199 47.0024 33.0854 47.3348C31.3742 50.7147 32.1437 54.2849 31.75 57.7326C31.6643 58.4879 31.9026 59.4287 31.3526 59.9353C28.8428 62.2464 29.5812 65.1225 29.7912 67.9232L29.6829 68.0532L29.8006 67.9317C30.1001 69.6221 28.4417 69.6956 27.5865 70.4443C28.1139 70.9613 28.8664 70.4433 29.2629 71.0225L29.2921 70.9905Z" fill="#7C6063"/>
<path fill-rule="evenodd" clip-rule="evenodd" d="M11.7829 251.117C11.6662 250.929 11.6191 250.762 11.5117 250.7C11.2923 250.572 11.0418 250.579 10.9787 250.883C10.9542 251.002 11.0842 251.269 11.1416 251.268C11.3479 251.266 11.5532 251.178 11.7829 251.117ZM11.3253 253.786L10.278 254.286L10.3035 254.311C9.53406 252.621 10.053 250.786 9.713 249.039C9.45496 247.715 11.1944 247.813 11.5098 246.84C11.0823 246.325 10.5342 246.958 10.0774 246.621C9.70263 246.344 9.42482 246.062 9.50958 245.586C9.58115 245.192 9.84202 245.122 10.2573 245.124C11.637 245.131 11.4985 244.253 11.0041 243.477C9.70358 241.434 9.73277 240.066 11.2923 237.853C11.4816 237.697 11.8894 238.022 11.9364 237.559C11.7283 237.664 11.5202 237.77 11.3121 237.875C10.4287 237.368 10.2554 236.681 10.7913 235.815L10.8101 235.833C10.2639 235.076 10.6877 234.636 11.3215 234.263L11.2998 234.283C10.1048 230.644 11.1492 226.951 11.0992 223.286C11.0908 222.672 11.9129 222.045 12.3508 221.425L12.3132 221.455C12.5015 221.453 12.6898 221.452 12.8791 221.451L12.8556 221.442C12.7416 223.498 12.5053 225.554 12.8631 227.61C12.4959 227.67 12.0382 227.496 11.8272 228.01C12.3179 228.204 12.6126 227.968 12.8509 227.595C13.0176 227.606 13.1852 227.618 13.3519 227.63C12.5401 230.595 14.1175 233.507 13.5638 236.505C13.4489 237.126 14.1034 236.439 14.4019 236.345L14.3831 236.326C14.5705 236.803 14.8756 237.422 14.5592 237.784C13.0185 239.539 14.0102 241.704 13.6156 243.644C13.2963 245.22 13.9461 247.043 14.1185 248.752C14.2748 250.298 13.8341 251.535 13.5619 252.891C13.286 254.268 12.1455 253.724 11.2989 253.809C11.1944 253.723 11.3855 253.393 11.0456 253.498C11.1388 253.594 11.232 253.69 11.3253 253.786Z" fill="#7C6063"/>
<path fill-rule="evenodd" clip-rule="evenodd" d="M30.3034 79.7276C30.9617 79.3867 31.2904 78.9432 30.8816 78.1351C30.0322 78.558 30.3844 79.2125 30.3157 79.7408L30.2215 79.8293L30.3034 79.7276ZM34.9227 85.8866C36.1724 87.2352 35.951 88.9059 35.935 90.5304L35.9567 90.5068C34.2842 90.2073 33.7596 88.6073 33.6174 87.4942C33.3142 85.1342 32.6097 83.0011 31.2367 80.9462C30.9899 82.7789 30.666 84.6049 31.5286 86.4602C32.5024 88.5555 33.188 90.7244 32.8659 93.0881L32.9036 93.0656C32.3385 93.1456 31.9449 93.8227 31.0982 93.4752C31.4156 90.9655 30.4371 88.8569 29.2496 86.5732C28.1223 84.4015 28.8804 81.5829 29.0876 79.0524C29.1564 78.2152 29.5208 77.3978 29.1338 76.5483C28.9021 76.0398 28.8833 75.551 29.4483 75.2252C29.9672 74.9247 30.4701 75.0858 30.8694 75.421C31.7641 76.1735 33.2869 76.5652 32.5062 78.331C32.3272 78.7341 32.3743 79.4715 32.6371 79.7983C34.0817 81.597 34.2964 83.8261 34.9396 85.9045L34.8464 85.9742L34.9227 85.8866Z" fill="#7C6063"/>
<path fill-rule="evenodd" clip-rule="evenodd" d="M12.351 221.425C11.9376 221.397 11.2284 221.448 11.2425 221.066C11.2972 219.563 10.6709 217.886 12.2982 216.386C12.6231 217.698 12.3397 219.047 13.3586 219.896L13.3765 219.881L13.3765 220.436L13.3596 220.421C13.192 220.761 13.0234 221.101 12.8558 221.442L12.8793 221.452C12.6891 221.276 12.5007 221.296 12.3133 221.455L12.351 221.425Z" fill="#7C6063"/>
<path fill-rule="evenodd" clip-rule="evenodd" d="M13.6516 209.605C14.1582 210.536 14.3993 211.529 14.1724 212.723C12.8982 212.801 12.3755 212.081 12.2343 211.104C12.1099 210.245 12.5177 209.628 13.6516 209.605Z" fill="#7C6063"/>
<path fill-rule="evenodd" clip-rule="evenodd" d="M22.1136 188.047C21.4271 188.257 20.7415 188.467 19.8779 188.731C19.9627 187.633 20.249 186.745 20.7312 185.745C21.8198 186.27 21.4808 187.458 22.0929 188.064L22.1136 188.047Z" fill="#7C6063"/>
<path fill-rule="evenodd" clip-rule="evenodd" d="M17.4453 214.276C19.5247 215.447 17.5376 217.45 18.5283 218.844C17.16 217.513 17.8766 215.775 17.483 214.253L17.4453 214.276Z" fill="#7C6063"/>
<path fill-rule="evenodd" clip-rule="evenodd" d="M20.5482 181.396C20.7111 181.971 21.5945 182.404 21.0144 183.099C20.7205 183.451 20.2393 183.223 19.9756 182.866C19.4021 182.084 19.8607 181.69 20.5689 181.415L20.5482 181.396Z" fill="#7C6063"/>
<path fill-rule="evenodd" clip-rule="evenodd" d="M18.2817 193.814C18.9663 194.751 19.1952 195.406 18.4117 196.243C17.8965 195.495 18.0302 194.799 18.2817 193.814Z" fill="#7C6063"/>
<path fill-rule="evenodd" clip-rule="evenodd" d="M17.1567 207.104C17.5701 207.043 17.7848 207.253 17.7566 207.641C17.7255 208.061 17.5663 208.472 17.0889 208.545C16.8252 208.585 16.6462 208.349 16.618 208.076C16.57 207.633 16.6679 207.256 17.1567 207.104Z" fill="#7C6063"/>
<path fill-rule="evenodd" clip-rule="evenodd" d="M13.3052 214.834C13.194 215.186 12.9445 215.422 12.5988 215.475C12.1798 215.539 11.9792 215.28 12.0743 214.884C12.1647 214.516 12.4708 214.356 12.8399 214.37C13.1168 214.382 13.3268 214.502 13.3052 214.834Z" fill="#7C6063"/>
<path fill-rule="evenodd" clip-rule="evenodd" d="M15.9493 217.313C15.6451 216.843 15.4304 216.368 15.7911 215.729C16.3448 216.31 15.7788 216.842 15.9286 217.332L15.9493 217.313Z" fill="#7C6063"/>
<path fill-rule="evenodd" clip-rule="evenodd" d="M17.4476 210.683C17.8036 210.827 18.2491 210.878 18.2349 211.411C18.234 211.467 18.1276 211.572 18.0843 211.566C17.5701 211.483 17.5814 211.032 17.474 210.665L17.4476 210.683Z" fill="#7C6063"/>
<path fill-rule="evenodd" clip-rule="evenodd" d="M13.3624 206.536L13.3837 206.559L13.3624 206.536Z" fill="#7C6063"/>
<path fill-rule="evenodd" clip-rule="evenodd" d="M13.8763 216.294L13.8959 216.314L13.8763 216.294Z" fill="#7C6063"/>
<path fill-rule="evenodd" clip-rule="evenodd" d="M16.6027 569.215L16.4633 569.315L16.4369 569.16L16.6027 569.215ZM17.9522 583.735C17.8411 583.802 17.7299 583.869 17.6197 583.936C17.5623 583.807 17.4418 583.664 17.4662 583.553C17.487 583.461 17.6791 583.408 17.794 583.337C17.8467 583.469 17.8995 583.602 17.9522 583.735ZM12.5155 513.605C12.4637 513.741 12.4496 513.955 12.3545 514C12.0861 514.127 11.91 513.939 11.861 513.695C11.8365 513.571 11.9062 513.333 11.9947 513.297C12.2584 513.185 12.4176 513.37 12.5155 513.605ZM13.7077 561.547C13.7219 561.9 14.2257 562.347 13.5269 562.732C13.3009 562.328 13.1917 561.968 13.7077 561.547ZM13.1888 559.808C12.6699 559.727 12.2141 559.686 12.1247 559.039C12.1143 558.965 12.3507 558.766 12.4345 558.786C12.8611 558.89 13.2171 559.097 13.1888 559.808ZM13.6173 566.805C12.9355 565.997 12.8658 565.227 13.1069 563.946C13.5524 565.098 14.1805 565.764 13.6173 566.805ZM11.0746 508.881C12.0945 508.976 12.7886 509.131 13.1615 510.121C11.9636 510.502 11.5794 509.831 11.0746 508.881ZM12.944 552.032C12.8837 552.093 12.8319 552.166 12.7613 552.208C12.7095 552.238 12.6332 552.225 12.5682 552.232C12.6991 552.174 12.831 552.114 12.9628 552.056C13.0419 551.298 13.2105 550.626 14.2238 550.699C14.5346 551.941 13.574 551.82 12.944 552.032ZM13.9451 571.53C13.963 571.835 14.1654 572.209 13.7106 572.352C13.6136 572.383 13.3527 572.231 13.3414 572.14C13.2811 571.68 13.6691 571.65 13.979 571.558C13.8857 571.118 13.299 570.741 13.7981 570.206C14.2295 570.517 15.0657 570.452 14.8557 571.29C14.819 571.437 14.2624 571.453 13.9451 571.53ZM17.551 585.393L17.4992 585.481L17.5811 585.422L17.6395 585.341L17.551 585.393ZM15.5234 535.616C15.9566 533.747 17.3353 532.043 16.5189 529.954L16.5415 529.977C16.0028 530.236 15.5413 530.231 15.3417 529.56C15.1835 529.027 15.4999 528.745 15.9679 528.692C16.7957 528.599 17.4747 528.38 17.5548 527.396L17.584 527.419C17.2487 527.459 16.775 527.663 16.5998 527.514C14.4658 525.699 13.2388 522.671 14.0119 520.671C14.8774 518.43 13.6399 517.851 12.8809 516.706C13.3621 515.627 14.1438 517.1 14.7418 516.157C15.0525 515.288 13.671 514.593 13.9846 513.527C13.8104 513.352 13.6362 513.177 13.4619 513.002C12.9101 512.708 12.3846 512.378 12.7114 511.629C12.8159 511.39 13.1116 511.254 13.3536 511.433C14.0044 511.913 13.6842 512.478 13.4384 513.025C13.6136 513.2 13.7887 513.374 13.9639 513.548C14.2624 513.25 14.8604 512.89 14.8133 512.663C14.4395 510.855 13.7435 509.108 14.689 507.227C14.8661 506.874 14.14 506.432 13.5863 506.413C12.3761 506.375 13.5213 507.666 12.4788 507.988C12.0559 506.131 10.454 504.778 10.9748 502.446C11.3703 500.676 10.5407 498.822 10.2459 497.016C9.81457 494.365 8.67507 491.707 10.1866 488.766C10.907 487.364 11.4504 484.988 9.87672 483.234C9.70344 483.062 9.52923 482.889 9.35594 482.716C9.01032 482.432 8.84269 482.092 9.11768 481.681C9.16571 481.61 9.452 481.584 9.50003 481.644C9.83247 482.049 9.45011 482.374 9.33899 482.732C9.51133 482.906 9.68368 483.081 9.85602 483.255C10.9569 481.989 11.796 480.692 10.3664 479.114L10.3928 479.14C9.50474 478.074 8.3624 478.569 7.28881 478.635L7.31141 478.612C6.79722 479.91 6.35367 481.199 7.81337 482.222L7.79924 482.21C6.94696 484.779 7.47623 487.287 7.78983 489.893C8.08177 492.314 8.86812 494.659 8.85494 497.113L8.82574 497.084C9.40491 497.608 10.1508 498.133 8.82762 498.66L8.85211 498.635C9.38702 502.505 9.05177 506.38 10.0406 510.32C11.1961 514.923 12.2631 519.737 11.8327 524.635C11.7593 525.464 11.602 526.303 12.5419 526.912C13.2661 527.382 13.1653 528.231 12.9694 528.988C12.2339 531.83 12.2283 531.829 14.3293 534.047C12.4185 534.669 12.345 536.003 12.6747 537.703C12.8931 538.826 12.5673 540.057 12.4731 541.239C12.3582 542.693 12.4326 544.077 12.9205 545.515C13.3979 546.922 13.5392 548.501 12.264 549.769C11.9749 550.056 11.7282 550.477 11.6538 550.871C11.2903 552.806 10.7761 554.654 10.1112 556.532C9.44918 558.401 9.83623 560.85 10.1611 563.062C10.7704 567.219 11.4259 571.381 12.5211 575.415C13.1483 577.727 12.7528 580.546 15.2258 582.35C13.5825 582.628 13.3132 583.678 13.6616 584.96C13.865 585.71 14.1475 586.445 15.2814 585.916C15.935 585.613 16.0028 585.759 16.0122 586.954C16.2062 587.141 16.5932 587.185 16.4878 587.601C16.0508 587.565 16.1638 587.168 16.0348 586.933C14.7503 587.665 14.2323 588.476 15.0563 590.038C15.6148 591.095 15.2174 592.559 16.0386 593.64L16.0018 593.609C16.4972 593.764 16.9323 593.791 17.0368 593.121L17.0613 593.143C17.0603 592.953 17.0603 592.762 17.0594 592.571L17.0387 592.591C16.5546 588.425 19.4505 585.246 20.6126 581.491C19.5579 581.388 19.7942 582.286 19.1199 582.496C18.7621 581.806 18.4683 580.959 17.2157 581.512C16.3814 581.88 15.2334 581.35 16.0047 580.198C17.0434 578.645 16.2194 577.072 16.484 575.537C16.6102 574.805 15.6751 574.037 17.1809 573.424C18.0737 573.061 16.8324 571.872 16.0612 570.714C17.8552 571.408 18.2017 570.459 18.3157 569.421C18.3778 568.859 19.1463 567.725 17.5501 567.958C17.6047 568.014 17.6715 568.062 17.7102 568.127C17.7394 568.175 17.7328 568.244 17.7412 568.303C17.6875 568.179 17.6339 568.056 17.5802 567.933C16.1035 567.87 15.1354 566.346 15.6939 564.516C16.3324 562.428 15.6383 560.34 15.9839 558.208C16.2448 556.605 14.4225 557.582 13.4695 557.704L13.3329 557.812L13.4375 557.673C13.2246 557.12 12.9082 556.587 13.1634 555.688C14.7719 556.665 16.1732 556.594 16.9087 554.61C16.9954 554.376 17.2317 553.965 17.2261 553.962C14.6928 552.616 16.8654 549.469 14.8991 547.898C14.302 547.421 14.576 547.107 14.9358 546.379C15.5168 545.205 15.352 543.563 15.2023 542.152C15.0535 540.755 15.3417 539.543 15.8474 538.289C16.2175 537.371 16.71 536.338 15.4895 535.589C15.4029 535.702 15.643 536.038 15.2494 535.943C15.3407 535.833 15.4321 535.724 15.5234 535.616Z" fill="#7C6063"/>
<path fill-rule="evenodd" clip-rule="evenodd" d="M23.2187 614.181C21.6949 611.254 21.3729 607.964 21.2881 604.839C21.2175 602.258 20.6807 599.496 21.7967 596.927C22.0199 596.413 21.8324 595.949 21.419 595.555C20.6345 594.806 21.1017 594.196 21.6752 593.612L21.6573 593.631C21.6526 591.732 22.9305 589.952 22.1856 587.984L22.2148 588C19.5101 588.4 18.3263 589.469 18.8565 592.01C19.1993 593.654 18.509 594.286 17.6172 595.131C17.6784 595.344 17.7453 595.555 17.7924 595.771C17.7961 595.79 17.6652 595.837 17.5965 595.872C17.5607 595.654 17.5249 595.435 17.4882 595.217C16.6519 594.996 16.1989 594.421 16.0012 593.609L16.0388 593.64C14.532 594.774 15.6075 595.719 16.3798 596.493C16.8874 597.001 17.7236 597.18 18.5881 597.591C17.6134 600.27 17.8846 603.173 18.2943 605.752C18.6757 608.164 19.5073 610.659 19.7879 613.128C20.1062 615.914 21.7656 618.342 21.4623 621.315C21.3013 622.893 21.3069 625.046 23.7621 625.548C24.0032 625.597 24.3902 626.164 24.3224 626.311C23.4588 628.17 25.057 630.498 23.2046 632.147L23.2225 632.128C23.003 634.83 22.6696 637.533 24.0502 640.082C24.9402 641.726 25.7614 643.408 25.6795 645.366C25.6691 645.608 25.7331 645.951 25.897 646.088C27.9519 647.807 27.1429 650.205 27.449 652.347C27.6562 653.789 28.0564 655.193 29.1686 656.262C29.6216 656.698 30.1066 657.103 30.7234 656.602C31.2273 656.194 31.5221 655.564 31.119 655.009C30.0501 653.541 30.2215 651.545 28.9812 650.17C28.6205 649.772 28.4623 649.314 28.4463 648.773C28.3728 646.237 28.2118 645.715 26.8453 643.337C28.968 642.929 28.4708 641.665 27.821 640.351L27.8483 640.372C26.9245 639.89 26.2586 638.862 24.9176 639.498C25.2321 638.114 26.1466 638.169 27.012 637.836C25.3009 634.456 26.0703 630.886 25.6766 627.439C25.5909 626.683 25.8292 625.742 25.2792 625.236C22.7695 622.925 23.5078 620.049 23.7178 617.248L23.6095 617.118L23.7272 617.239C24.0267 615.549 22.3683 615.476 21.5132 614.727C22.0406 614.21 22.793 614.728 23.1895 614.149L23.2187 614.181Z" fill="#7C6063"/>
<path fill-rule="evenodd" clip-rule="evenodd" d="M5.70958 434.054C5.59281 434.242 5.54572 434.409 5.43837 434.471C5.21894 434.599 4.96843 434.592 4.90533 434.288C4.88084 434.169 5.01081 433.903 5.06825 433.903C5.2745 433.905 5.4798 433.993 5.70958 434.054ZM5.2519 431.385L4.20468 430.885L4.2301 430.86C3.4607 432.55 3.9796 434.386 3.63963 436.133C3.38159 437.456 5.121 437.358 5.43648 438.331C5.00893 438.847 4.46083 438.213 4.00408 438.55C3.62927 438.827 3.35145 439.109 3.43621 439.585C3.50778 439.98 3.76865 440.049 4.18396 440.047C5.56362 440.04 5.42518 440.919 4.93076 441.695C3.63022 443.737 3.65941 445.106 5.21894 447.318C5.40823 447.474 5.81599 447.149 5.86308 447.612C5.65496 447.507 5.44684 447.401 5.23871 447.296C4.35536 447.804 4.18208 448.49 4.71793 449.357L4.73676 449.338C4.19055 450.095 4.61433 450.536 5.24812 450.909L5.22647 450.888C4.0314 454.527 5.07579 458.22 5.02588 461.885C5.0174 462.5 5.83954 463.126 6.27745 463.746L6.23979 463.716C6.42814 463.718 6.61648 463.719 6.80577 463.72L6.78224 463.729C6.66829 461.674 6.4319 459.617 6.78977 457.561C6.42249 457.501 5.96479 457.675 5.75384 457.161C6.24449 456.967 6.53926 457.203 6.77752 457.576C6.94421 457.565 7.11184 457.553 7.27853 457.541C6.46675 454.576 8.04417 451.664 7.49043 448.666C7.37553 448.046 8.03004 448.732 8.32858 448.826L8.30974 448.845C8.49715 448.368 8.80227 447.749 8.48584 447.387C6.94515 445.632 7.93681 443.467 7.54221 441.527C7.22296 439.951 7.87276 438.128 8.0451 436.419C8.20143 434.873 7.76071 433.636 7.48854 432.28C7.21261 430.903 6.07216 431.447 5.22553 431.362C5.121 431.448 5.31216 431.778 4.97219 431.673C5.06542 431.577 5.15867 431.481 5.2519 431.385Z" fill="#7C6063"/>
<path fill-rule="evenodd" clip-rule="evenodd" d="M24.2301 605.444C24.8883 605.784 25.217 606.228 24.8083 607.036C23.9588 606.613 24.311 605.959 24.2423 605.43L24.1481 605.342L24.2301 605.444ZM28.8493 599.285C30.099 597.936 29.8777 596.265 29.8617 594.641L29.8833 594.664C28.2108 594.964 27.6862 596.564 27.544 597.677C27.2408 600.037 26.5364 602.17 25.1633 604.225C24.9166 602.392 24.5926 600.566 25.4553 598.711C26.429 596.616 27.1146 594.447 26.7925 592.083L26.8302 592.106C26.2652 592.026 25.8715 591.348 25.0249 591.696C25.3422 594.206 24.3638 596.314 23.1762 598.598C22.049 600.77 22.8071 603.588 23.0143 606.119C23.083 606.956 23.4475 607.773 23.0604 608.623C22.8287 609.131 22.8099 609.62 23.3749 609.946C23.8938 610.246 24.3967 610.085 24.796 609.75C25.6907 608.998 27.2135 608.606 26.4328 606.84C26.2539 606.437 26.3009 605.7 26.5637 605.373C28.0083 603.574 28.223 601.345 28.8663 599.267L28.773 599.197L28.8493 599.285Z" fill="#7C6063"/>
<path fill-rule="evenodd" clip-rule="evenodd" d="M6.27762 463.746C5.86419 463.774 5.15506 463.723 5.16918 464.105C5.2238 465.608 4.59755 467.285 6.22488 468.785C6.54978 467.473 6.26631 466.124 7.28527 465.275L7.30318 465.29L7.30318 464.735L7.28622 464.75C7.11859 464.41 6.95002 464.07 6.78239 463.729L6.80594 463.719C6.61571 463.895 6.42735 463.875 6.23994 463.716L6.27762 463.746Z" fill="#7C6063"/>
<path fill-rule="evenodd" clip-rule="evenodd" d="M7.57822 475.566C8.08487 474.635 8.32595 473.642 8.09899 472.448C6.82481 472.37 6.30215 473.091 6.16089 474.067C6.03658 474.926 6.44436 475.543 7.57822 475.566Z" fill="#7C6063"/>
<path fill-rule="evenodd" clip-rule="evenodd" d="M16.0403 497.124C15.3537 496.914 14.6681 496.704 13.8046 496.44C13.8893 497.538 14.1756 498.426 14.6578 499.426C15.7464 498.901 15.4074 497.713 16.0196 497.107L16.0403 497.124Z" fill="#7C6063"/>
<path fill-rule="evenodd" clip-rule="evenodd" d="M11.3719 470.896C13.4513 469.724 11.4642 467.721 12.455 466.327C11.0866 467.658 11.8033 469.396 11.4096 470.918L11.3719 470.896Z" fill="#7C6063"/>
<path fill-rule="evenodd" clip-rule="evenodd" d="M14.4748 503.775C14.6378 503.2 15.5211 502.767 14.941 502.072C14.6472 501.72 14.1659 501.948 13.9023 502.306C13.3287 503.087 13.7874 503.481 14.4956 503.756L14.4748 503.775Z" fill="#7C6063"/>
<path fill-rule="evenodd" clip-rule="evenodd" d="M12.2083 491.357C12.893 490.42 13.1218 489.765 12.3383 488.928C11.8232 489.676 11.9569 490.372 12.2083 491.357Z" fill="#7C6063"/>
<path fill-rule="evenodd" clip-rule="evenodd" d="M11.0833 478.067C11.4967 478.128 11.7115 477.918 11.6832 477.531C11.6521 477.11 11.493 476.699 11.0155 476.627C10.7518 476.586 10.5729 476.822 10.5446 477.096C10.4966 477.538 10.5945 477.915 11.0833 478.067Z" fill="#7C6063"/>
<path fill-rule="evenodd" clip-rule="evenodd" d="M7.23179 470.337C7.12066 469.986 6.8711 469.749 6.52548 469.697C6.10641 469.633 5.90582 469.892 6.00094 470.287C6.09135 470.655 6.39742 470.816 6.76658 470.801C7.04345 470.789 7.25345 470.67 7.23179 470.337Z" fill="#7C6063"/>
<path fill-rule="evenodd" clip-rule="evenodd" d="M9.87593 467.858C9.57174 468.328 9.35703 468.803 9.71772 469.442C10.2715 468.861 9.70547 468.329 9.85521 467.839L9.87593 467.858Z" fill="#7C6063"/>
<path fill-rule="evenodd" clip-rule="evenodd" d="M11.3741 474.488C11.7301 474.345 12.1756 474.293 12.1614 473.76C12.1605 473.704 12.0541 473.599 12.0108 473.605C11.4966 473.688 11.5079 474.139 11.4005 474.507L11.3741 474.488Z" fill="#7C6063"/>
<path fill-rule="evenodd" clip-rule="evenodd" d="M7.28906 478.635L7.31038 478.613L7.28906 478.635Z" fill="#7C6063"/>
<path fill-rule="evenodd" clip-rule="evenodd" d="M7.80298 468.877L7.82256 468.858L7.80298 468.877Z" fill="#7C6063"/>
<path fill-rule="evenodd" clip-rule="evenodd" d="M4.28476 349.748C4.41002 349.693 4.58612 349.67 4.64545 349.574C4.6963 349.492 4.61531 349.327 4.59271 349.199C4.46557 349.252 4.2876 349.273 4.22733 349.369C4.17553 349.451 4.25934 349.618 4.28476 349.748ZM1.95677 415.91C1.84376 416.014 1.65447 416.105 1.63375 416.226C1.5829 416.517 1.73828 416.718 2.05188 416.599C2.16113 416.557 2.26285 416.333 2.25437 416.2C2.24684 416.098 2.06319 416.006 1.95677 415.91ZM3.95798 360.979C4.14633 360.812 4.32621 360.634 4.18212 360.357C4.1614 360.316 4.04368 360.326 3.97117 360.312C3.97494 360.543 3.9787 360.774 3.98246 361.006L3.95798 360.979ZM3.44096 368.165L3.53514 368.111L3.46827 368.19L3.39199 368.255L3.44096 368.165ZM12.6804 314.782C12.7652 317.2 11.4269 319.285 11.0474 321.632C10.7545 323.438 11.1482 325.415 10.1179 327.1L10.1462 327.119C9.95689 326.944 9.76949 326.962 9.58302 327.123L9.62633 327.082C9.4926 327.202 9.46436 327.341 9.54253 327.5C9.59903 327.572 9.66213 327.636 9.73559 327.691L9.95218 327.706L10.1499 327.61L10.1208 327.628C11.0295 328.133 11.4618 328.822 11.1256 329.719C10.2884 330.568 9.88814 328.185 9.11308 329.682L9.09236 329.661C9.68472 330.045 9.58208 330.657 9.60468 331.226L9.62163 331.203L8.56499 332.247L8.59702 332.216C8.2222 332.575 8.16381 332.934 8.59419 333.293L8.5763 333.265C8.60361 333.933 8.30789 334.627 8.65069 335.268C10.6754 339.049 11.4298 343.264 12.8509 347.243C13.5845 349.298 14.3379 351.516 15.7825 353.307L15.758 353.28C15.3568 354.549 15.8767 355.653 16.4841 356.678C17.0576 357.647 16.7657 358.535 15.952 358.803C15.2043 359.048 14.1222 359.833 13.3698 358.403C12.4177 356.593 11.3978 354.838 11.136 352.766C11.3196 352.764 11.5042 352.761 11.6888 352.76C11.7104 353.135 11.5032 353.609 12.0994 353.734C12.154 353.746 12.2707 353.667 12.2915 353.608C12.4855 353.033 12.0711 352.912 11.6643 352.791C11.4948 352.791 11.3262 352.792 11.1576 352.793C10.9128 351.986 11.6709 351.274 10.6133 350.215C9.47848 349.078 9.55571 346.791 9.06694 345.017C8.68459 343.628 8.12144 342.319 7.81537 340.942C6.85573 340.794 6.96497 341.71 6.52424 342.013L6.54308 341.995C7.67223 344.261 8.16099 346.709 8.57818 349.177L8.59512 349.161C8.55651 349.221 8.48211 349.285 8.48776 349.339C8.50189 349.468 8.55463 349.593 8.5923 349.72L8.57535 349.705C7.52907 350.576 8.03384 351.43 8.6036 352.282C8.19865 352.426 7.53002 352.069 7.44621 353.001C8.07718 353.085 8.32674 352.665 8.58289 352.258C9.38526 352.53 9.35229 353.023 8.95111 353.622C8.43597 354.393 7.88035 355.14 7.42549 355.945C6.63348 357.349 6.09385 358.68 6.98568 360.404C7.70423 361.794 7.65998 363.501 7.54132 365.111L7.56392 365.087C6.46962 365.612 7.28705 365.876 7.70518 366.23C8.36628 366.79 9.52275 366.974 9.42481 368.145C9.19785 370.814 11.0465 372.668 12.0146 374.858C12.5392 376.041 13.075 377.148 12.6804 378.467L12.5834 378.341L12.7058 378.442C11.701 378.495 10.9307 378.214 10.7941 377.497C10.3477 375.155 9.71015 373.065 7.45185 371.661C6.63913 371.157 7.11658 369.398 5.78025 368.338C6.22852 371.433 6.06937 374.185 5.99591 376.938L6.02228 376.9C4.8969 377.285 4.16045 377.828 5.10879 379.082C5.55047 379.667 5.461 380.36 5.48643 381.028L5.51375 381.002C4.99014 380.582 4.08983 380.345 4.42415 381.28C5.47043 384.21 4.62191 386.914 3.86098 389.646C3.53796 390.806 4.2631 391.358 4.84887 392.07C5.25476 392.563 5.2397 392.615 4.45052 393.361C4.0531 393.736 4.10301 394.118 4.3102 394.495C4.84982 395.47 4.77259 396.456 4.45993 397.463L4.49101 397.431C3.86852 397.515 3.28746 397.612 3.55492 398.501C4.13032 400.412 4.0126 402.296 3.7894 404.289C3.62083 405.8 4.24803 407.354 3.60859 408.991C3.26202 409.877 4.05403 410.344 5.00519 409.763L4.98166 409.786C3.65474 412.525 5.56365 415.255 5.00143 417.99C4.67088 418.271 4.45898 418.573 4.85451 418.959C4.89971 419.003 5.03816 419.026 5.073 418.994C5.4902 418.607 5.10032 418.299 4.96 417.966C5.60509 417.867 5.89891 418.199 5.97802 418.796C6.06466 419.445 6.38579 419.897 7.05066 420.054L7.03183 420.035C6.83689 420.691 6.64949 421.431 5.87914 421.559C5.22651 421.667 5.16436 420.989 4.97413 420.543L5.00238 420.571C4.65487 420.737 4.30736 420.903 3.95986 421.069L3.96928 421.058C3.97117 421.241 3.97304 421.425 3.97587 421.609L3.95516 421.59C4.55317 422.664 4.7415 423.771 4.59082 425.025C4.42037 426.442 4.29229 427.893 4.99295 429.278C5.86689 431.008 4.90914 432.397 3.93255 433.699C3.25167 434.606 2.34195 434.336 2.35513 433.357C2.38997 430.746 2.03587 428.094 2.81281 425.529C2.86461 425.357 3.23472 425.28 3.45697 425.16L3.43531 425.182C3.03413 424.081 1.69496 424.843 1.07153 423.861C1.17135 423.201 1.29378 422.385 1.41715 421.569L1.38795 421.598C1.51885 421.49 1.7769 421.312 1.76183 421.283C-0.199824 417.682 0.638329 413.75 0.477291 409.954C0.409486 408.339 0.503665 406.725 0.15522 405.13C0.0657541 404.719 -0.106593 404.101 0.0911733 403.891C1.59137 402.304 0.706141 400.642 0.362405 398.99C0.376531 398.857 0.733442 398.812 0.458453 398.607C0.435851 398.742 0.414192 398.878 0.39159 399.013C0.349212 398.94 0.254104 398.85 0.271056 398.794C1.14782 395.837 -0.493645 392.764 0.672234 389.831C1.1384 388.658 0.881307 387.339 0.662822 386.343C0.232445 384.389 -0.342029 382.781 1.11391 380.901C1.76654 380.06 0.924627 378.523 1.0301 377.187C1.2241 374.709 1.62811 372.175 1.34276 369.563C0.902968 365.535 0.672236 361.38 3.31477 357.644C4.12467 356.498 4.12561 354.481 3.88735 352.959C3.40235 349.868 3.93632 346.892 4.4637 343.932C4.86488 341.685 3.85439 339.298 5.07489 337.223C5.82735 335.944 4.94305 334.248 6.38015 333.183C7.10623 332.644 6.04018 332.09 6.09762 331.359C6.2596 329.31 7.10905 327.45 7.61948 325.537C8.08941 323.776 7.37369 321.646 9.26565 320.133C10.0774 319.484 8.79195 318.775 8.06398 318.364L8.08754 318.389C8.24669 317.862 8.40489 317.336 8.56311 316.81C8.79478 316.841 9.02644 316.872 9.25905 316.903C9.25529 316.828 9.27977 316.711 9.24493 316.69C8.98124 316.53 8.77971 316.686 8.58571 316.848C7.85021 315.434 9.43233 314.764 9.61597 313.637C10.2008 310.038 10.8186 306.447 11.4072 302.849C11.4995 302.282 11.3036 301.55 12.2359 301.576C12.9771 301.598 13.3679 302.117 13.2897 302.766C13.14 303.998 13.6843 305.118 13.7173 306.304C13.754 307.676 13.8566 309.018 14.9566 310.413C13.4056 309.575 12.8452 310.929 11.4383 311.101C12.9102 311.976 13.2916 313.005 12.6842 314.278L12.7011 314.264C12.3207 314.375 11.5955 314.247 11.6859 314.748C11.8084 315.423 12.3489 314.835 12.7087 314.798L12.6804 314.782Z" fill="#7C6063"/>
<path fill-rule="evenodd" clip-rule="evenodd" d="M13.0669 276.374C13.1385 276.34 13.2393 276.323 13.2722 276.266C13.2977 276.223 13.2393 276.129 13.2186 276.058C13.147 276.092 13.0453 276.109 13.0133 276.164C12.9878 276.21 13.0462 276.303 13.0669 276.374ZM15.3554 281.336C15.3356 281.276 15.3149 281.215 15.2942 281.155C15.1859 281.2 15.0747 281.239 14.974 281.298C14.9627 281.304 15.0116 281.415 15.0324 281.478C15.1407 281.431 15.248 281.383 15.3554 281.336ZM14.246 282.425C14.3345 282.533 14.1104 282.84 14.4701 282.773C14.3863 282.665 14.3025 282.556 14.2196 282.448C14.1358 282.333 14.3694 281.974 13.9597 282.11C14.0548 282.215 14.1509 282.32 14.246 282.425ZM13.7309 286.529L13.8081 286.654L13.6998 286.559L13.7309 286.529ZM15.2471 275.748C15.8347 277.05 17.2068 278.144 16.3282 279.834C16.2679 278.427 15.2631 278.361 14.2206 278.35L14.1424 278.245L14.247 278.323C14.2441 278.497 14.2422 278.672 14.2394 278.846C14.0125 279.224 13.5934 279.561 13.9729 280.096C14.4447 279.73 14.1123 279.235 14.2093 278.823C15.1265 278.732 15.7057 279.279 16.2444 279.903C16.7737 280.487 16.9761 281.157 16.7849 281.933L16.8038 281.916C16.5505 283.782 16.5222 285.648 14.9373 287.146C14.3731 287.679 15.0578 288.156 15.7792 287.593L15.7547 287.568C15.96 288.028 16.3649 288.664 15.9063 288.971C14.2074 290.11 14.7451 291.635 14.7856 293.237C14.8299 294.968 15.2132 296.908 13.713 298.372L13.7328 298.352C13.3749 299.113 13.1639 299.978 12.129 300.469C10.7936 298.488 11.7523 296.335 11.951 294.432C12.5537 288.684 12.0602 283.022 11.4603 277.33C11.2409 275.243 12.2231 273.187 11.886 271.064C11.8333 270.74 11.7344 270.423 11.6572 270.103L11.6807 270.126C11.3313 269.948 10.981 269.769 10.6316 269.591L10.6514 269.611C11.304 268.075 11.1496 266.405 10.9377 264.892C10.4621 261.493 11.1543 258.092 10.6486 254.718L10.625 254.742C10.7597 254.589 10.8934 254.436 11.0281 254.283C11.1279 254.224 11.2306 254.168 11.3351 254.115C12.5782 255.032 12.3512 256.695 13.2101 257.806L13.1837 257.765C12.8334 258.464 12.4454 259.254 12.7515 259.972C13.8213 262.484 13.0067 265.243 13.875 267.76C14.0878 268.377 13.615 269.116 13.7874 269.46C14.7932 271.467 13.7356 273.935 15.2772 275.778L15.2471 275.748Z" fill="#7C6063"/>
</svg>
